<svg width="215" height="162" viewBox="0 0 215 162" fill="none" xmlns="http://www.w3.org/2000/svg">
<g id="Group 298">
<g id="Group">
<g id="Group_2">
<g id="Group_3">
<path id="Vector" d="M165.527 79.3443C165.527 97.3336 157.354 113.427 144.505 124.128L145.052 124.76C158.07 113.891 166.37 97.5864 166.37 79.3443C166.37 62.6609 159.419 47.5785 148.254 36.7933L147.706 37.4253C158.66 48.0419 165.527 62.9137 165.527 79.3443Z" fill="black"/>
<path id="Vector_2" d="M145.01 125.35L143.873 124.086L144.21 123.791C157.481 112.753 165.106 96.5331 165.106 79.3442C165.106 63.5456 158.829 48.7581 147.412 37.7202L147.117 37.4253L148.254 36.1614L148.549 36.4563C160.303 47.7892 166.791 62.9979 166.791 79.3021C166.791 96.9966 158.955 113.68 145.305 125.055L145.01 125.35ZM165.949 79.3442C165.949 79.3864 165.949 79.3864 165.949 79.4285C165.949 79.4285 165.949 79.3864 165.949 79.3442ZM165.949 79.26C165.949 79.3021 165.949 79.3021 165.949 79.3442C165.949 79.3021 165.949 79.26 165.949 79.26ZM155.669 46.1461C162.326 55.7938 165.949 67.2109 165.949 79.1757C165.907 67.2109 162.326 55.7938 155.669 46.1461Z" fill="black"/>
</g>
<g id="Group_4">
<path id="Vector_3" d="M145.01 125.055L144.168 124.128L144.336 124.002C157.649 112.922 165.317 96.6595 165.317 79.3863C165.317 63.5035 158.997 48.6738 147.538 37.6359L147.412 37.5095L148.254 36.5826L148.423 36.7512C160.135 48.0419 166.623 63.2086 166.623 79.4285C166.623 97.0808 158.829 113.68 145.221 125.013L145.01 125.055ZM144.758 124.128L145.052 124.423C158.45 113.174 166.159 96.7438 166.159 79.3021C166.159 63.2507 159.798 48.2526 148.254 37.0882L147.959 37.3831C159.419 48.5053 165.696 63.3771 165.696 79.3021C165.738 96.6595 158.113 112.964 144.758 124.128Z" fill="black"/>
<path id="Vector_4" d="M144.968 125.603L143.578 124.044L144.083 123.622C157.312 112.627 164.895 96.4488 164.895 79.3442C164.895 63.5877 158.618 48.8845 147.243 37.8887L146.822 37.4674L148.212 35.9086L148.676 36.372C160.472 47.747 167.002 62.9979 167.002 79.3442C167.002 97.0808 159.166 113.848 145.432 125.223L144.968 125.603Z" fill="black"/>
</g>
</g>
<g id="Group_5">
<g id="Group_6">
<path id="Vector_5" d="M128.664 106.476L129.211 107.108C137.385 100.62 142.651 90.5928 142.651 79.3442C142.651 69.6544 138.733 60.8493 132.413 54.4456L131.866 55.0775C138.017 61.3127 141.85 69.9071 141.85 79.3442C141.85 90.34 136.668 100.114 128.664 106.476Z" fill="black"/>
<path id="Vector_6" d="M129.169 107.655L128.032 106.391L128.369 106.096C136.626 99.5664 141.387 89.7923 141.387 79.302C141.387 70.2863 137.89 61.7761 131.529 55.3303L131.234 55.0354L132.371 53.7715L132.666 54.1085C139.365 60.8914 143.03 69.8229 143.03 79.302C143.03 90.2979 138.059 100.535 129.422 107.402L129.169 107.655ZM132.456 55.0354C138.775 61.5655 142.272 70.1599 142.272 79.2599C142.272 70.202 138.775 61.6076 132.456 55.0354Z" fill="black"/>
</g>
<g id="Group_7">
<path id="Vector_7" d="M129.212 107.403L128.369 106.476L128.538 106.349C136.879 99.7771 141.64 89.9187 141.64 79.3863C141.64 70.3284 138.101 61.734 131.74 55.2882L131.613 55.1618L132.456 54.2349L132.624 54.4035C139.281 61.1442 142.946 70.0335 142.946 79.4285C142.946 90.34 138.017 100.535 129.422 107.36L129.212 107.403ZM128.959 106.476L129.254 106.771C137.68 100.03 142.483 90.0451 142.483 79.3021C142.483 70.0757 138.902 61.3548 132.456 54.6984L132.161 54.9933C138.522 61.5234 142.061 70.1599 142.061 79.2599C142.061 89.9609 137.301 99.8192 128.959 106.476Z" fill="black"/>
<path id="Vector_8" d="M129.17 107.95L127.779 106.391L128.285 105.97C136.5 99.4821 141.219 89.7502 141.219 79.3442C141.219 70.3706 137.722 61.9446 131.445 55.5409L131.023 55.1196L132.414 53.5609L132.877 54.0243C139.618 60.8071 143.325 69.8229 143.325 79.3442C143.325 90.3821 138.354 100.704 129.633 107.613L129.17 107.95Z" fill="black"/>
</g>
</g>
<g id="Group_8">
<g id="Group_9">
<path id="Vector_9" d="M189.12 79.3442C189.12 104.327 177.871 126.698 160.219 141.738L160.766 142.37C178.629 127.203 189.962 104.58 189.962 79.3442C189.962 55.6673 179.978 34.3076 163.968 19.2252L163.421 19.8572C179.261 34.7711 189.12 55.9201 189.12 79.3442Z" fill="black"/>
<path id="Vector_10" d="M160.724 142.918L159.587 141.654L159.924 141.359C178.208 125.813 188.698 103.19 188.698 79.3021C188.698 67.9271 186.381 56.8891 181.831 46.5252C177.408 36.5405 171.13 27.6511 163.168 20.1099L162.873 19.815L164.011 18.5511L164.305 18.846C172.479 26.5558 178.882 35.6136 183.39 45.809C188.067 56.3835 190.426 67.6322 190.426 79.2599C190.426 103.653 179.725 126.74 161.104 142.581L160.724 142.918ZM189.541 79.0072C189.541 79.0072 189.541 79.0493 189.541 79.0914C189.541 79.0493 189.541 79.0493 189.541 79.0072ZM186.213 56.0465C188.404 63.4192 189.499 71.0447 189.583 78.8386C189.499 71.0447 188.361 63.4192 186.213 56.0465Z" fill="black"/>
</g>
<g id="Group_10">
<path id="Vector_11" d="M160.767 142.623L159.924 141.696L160.093 141.57C178.419 125.982 188.909 103.316 188.909 79.3442C188.909 67.9271 186.592 56.8891 182 46.4831C177.576 36.4562 171.257 27.5247 163.252 19.9835L163.084 19.8572L163.926 18.9303L164.095 19.0988C172.226 26.7664 178.63 35.8243 183.137 46.0196C187.772 56.5521 190.131 67.8007 190.131 79.3863C190.131 103.695 179.472 126.74 160.851 142.539L160.767 142.623ZM160.514 141.738L160.809 142.033C179.219 126.277 189.752 103.442 189.752 79.3021C189.752 67.7585 187.393 56.5942 182.758 46.1039C178.335 36.0349 172.015 27.1034 163.969 19.478L163.674 19.7729C171.636 27.3562 177.913 36.2456 182.337 46.2724C186.929 56.7206 189.288 67.8007 189.288 79.3021C189.331 103.358 178.84 126.066 160.514 141.738Z" fill="black"/>
<path id="Vector_12" d="M160.725 143.213L159.334 141.654L159.84 141.233C178.082 125.729 188.53 103.19 188.53 79.3442C188.53 67.9692 186.213 57.0155 181.663 46.6516C177.281 36.6669 171.004 27.8196 163.042 20.2784L162.578 19.8571L163.968 18.2983L164.432 18.7618C172.605 26.4715 179.051 35.5715 183.559 45.809C188.235 56.4257 190.594 67.6743 190.594 79.3442C190.594 103.779 179.893 126.909 161.188 142.834L160.725 143.213Z" fill="black"/>
</g>
</g>
<g id="Group_11">
<g id="Group_12">
<path id="Vector_13" d="M213.049 79.3442C213.049 107.613 202.053 134.155 182.084 154.166C180.188 156.062 178.25 157.874 176.228 159.601L176.776 160.233C178.798 158.506 180.778 156.652 182.674 154.756C202.812 134.618 213.892 107.824 213.892 79.3442C213.892 50.8646 202.812 24.0701 182.674 3.93215C181.789 3.04743 180.904 2.20484 180.02 1.36224L179.472 1.99419C180.357 2.83678 181.241 3.67937 182.126 4.52197C202.053 24.4914 213.049 51.0752 213.049 79.3442Z" fill="black"/>
<path id="Vector_14" d="M176.734 160.781L175.596 159.517L175.933 159.222C177.913 157.495 179.893 155.683 181.747 153.787C201.632 133.902 212.628 107.403 212.628 79.2599C212.628 51.1174 201.674 24.6599 181.747 4.73262C180.989 3.97429 180.146 3.17383 179.135 2.20485L178.84 1.90995L179.978 0.646057L180.273 0.940957C181.326 1.90994 182.168 2.7104 182.969 3.51087C203.191 23.7331 214.313 50.6118 214.313 79.2178C214.313 107.824 203.191 134.703 182.969 154.925C181.073 156.821 179.093 158.674 177.071 160.402L176.734 160.781ZM213.471 79.3442C213.471 104.327 204.876 128.004 189.12 147.004C204.918 128.004 213.471 104.327 213.471 79.3442ZM182.379 4.22708C202.433 24.2808 213.471 50.9488 213.471 79.3442C213.471 50.991 202.433 24.2808 182.379 4.22708Z" fill="black"/>
</g>
<g id="Group_13">
<path id="Vector_15" d="M176.776 160.486L175.933 159.559L176.102 159.433C178.124 157.705 180.062 155.894 181.958 153.998C201.885 134.071 212.881 107.529 212.881 79.3442C212.881 51.1595 201.885 24.6178 181.958 4.69052C181.2 3.93218 180.357 3.08959 179.304 2.16274L179.135 2.03634L179.978 1.1095L180.146 1.23588C181.2 2.20486 182.042 3.00533 182.843 3.80579C203.023 23.9859 214.145 50.8225 214.145 79.3442C214.145 107.866 203.023 134.703 182.843 154.883C180.947 156.778 178.967 158.632 176.944 160.359L176.776 160.486ZM176.523 159.601L176.818 159.896C178.798 158.211 180.694 156.399 182.548 154.588C202.644 134.492 213.724 107.74 213.724 79.3442C213.724 50.9067 202.644 24.1965 182.548 4.10069C181.789 3.34236 180.989 2.58403 180.02 1.69931L179.725 1.99421C180.694 2.87893 181.494 3.63727 182.211 4.3956C202.222 24.4072 213.26 51.0331 213.26 79.3442C213.26 107.655 202.222 134.281 182.211 154.293C180.399 156.104 178.461 157.916 176.523 159.601Z" fill="black"/>
<path id="Vector_16" d="M176.734 161.076L175.344 159.517L175.849 159.096C177.829 157.368 179.809 155.557 181.663 153.703C201.506 133.86 212.46 107.445 212.46 79.3442C212.46 51.2437 201.506 24.8285 181.663 4.9854C180.905 4.22707 180.062 3.42661 179.051 2.45762L178.587 2.03633L179.978 0.477539L180.441 0.898835C181.494 1.86782 182.337 2.66827 183.137 3.46873C203.402 23.7331 214.566 50.6539 214.566 79.3021C214.566 107.95 203.402 134.871 183.137 155.135C181.242 157.031 179.262 158.885 177.197 160.654L176.734 161.076Z" fill="black"/>
</g>
</g>
<g id="Group_14">
<g id="Group_15">
<path id="Vector_17" d="M85.2704 107.066L85.8181 106.434C77.8135 100.114 72.6736 90.2979 72.6736 79.3021C72.6736 69.8651 76.5074 61.2706 82.6584 55.0354L82.1107 54.4035C75.7912 60.8072 71.8311 69.6123 71.8311 79.3021C71.8311 90.5507 77.0973 100.578 85.2704 107.066Z" fill="black"/>
<path id="Vector_18" d="M85.3124 107.655L85.0175 107.403C76.381 100.535 71.4097 90.2979 71.4097 79.3021C71.4097 69.8229 75.1171 60.8493 81.7736 54.1086L82.0685 53.7715L83.206 55.0354L82.9111 55.3303C76.5495 61.7762 73.0527 70.2864 73.0527 79.3021C73.0527 89.7924 77.8134 99.5665 86.0708 106.097L86.4078 106.391L85.3124 107.655Z" fill="black"/>
</g>
<g id="Group_16">
<path id="Vector_19" d="M85.3125 107.36L85.144 107.234C76.5495 100.409 71.6204 90.2558 71.6204 79.3021C71.6204 69.865 75.2856 60.9757 81.9421 54.2349L82.1106 54.0664L82.9532 54.9933L82.8268 55.1196C76.4231 61.6076 72.9264 70.1599 72.9264 79.2599C72.9264 89.7923 77.687 99.6507 86.0287 106.223L86.1972 106.349L85.3125 107.36ZM82.0685 54.7405C75.5806 61.3548 72.0417 70.0757 72.0417 79.3442C72.0417 90.0872 76.8444 100.072 85.2704 106.813L85.5653 106.518C77.2657 99.8613 72.5051 89.9609 72.5051 79.3863C72.5051 70.2442 76.0018 61.6497 82.4055 55.1196L82.0685 54.7405Z" fill="black"/>
<path id="Vector_20" d="M85.3545 107.95L84.8911 107.571C76.2124 100.662 71.199 90.3822 71.199 79.3442C71.199 69.8229 74.9064 60.8072 81.6471 53.9822L82.1105 53.5187L83.5008 55.0775L83.0795 55.4988C76.7601 61.9025 73.2633 70.3706 73.2633 79.3442C73.2633 89.7502 77.9818 99.4822 86.1971 105.97L86.7448 106.391L85.3545 107.95Z" fill="black"/>
</g>
</g>
<g id="Group_17">
<g id="Group_18">
<path id="Vector_21" d="M37.7059 160.191L38.2536 159.559C36.2735 157.832 34.3355 156.02 32.4397 154.166C12.4703 134.197 1.47443 107.613 1.47443 79.3442C1.47443 51.0752 12.4703 24.5335 32.4397 4.52197C33.3244 3.63725 34.2092 2.79467 35.0939 1.95207L34.5462 1.32013C33.6193 2.16272 32.7346 3.04744 31.8499 3.93216C11.7119 24.0701 0.631836 50.8646 0.631836 79.3442C0.631836 107.824 11.7119 134.618 31.8499 154.756C33.7457 156.61 35.7258 158.464 37.7059 160.191Z" fill="black"/>
<path id="Vector_22" d="M37.748 160.781L37.453 160.528C35.4308 158.801 33.4507 156.947 31.5549 155.051C11.3327 134.829 0.210449 107.95 0.210449 79.3442C0.210449 50.7382 11.3327 23.8595 31.5549 3.63724C32.3554 2.83678 33.198 1.99418 34.2512 1.0252L34.5461 0.730286L35.6836 1.99417L35.3887 2.28909C34.3354 3.25807 33.4929 4.05853 32.7345 4.859C12.8493 24.7442 1.8535 51.2016 1.8535 79.3863C1.8535 107.571 12.8072 133.986 32.7345 153.914C34.5882 155.767 36.5262 157.579 38.5484 159.306L38.8855 159.601L37.748 160.781ZM35.0517 157.2C35.9364 158 36.8211 158.801 37.7058 159.559C36.779 158.801 35.8942 158 35.0517 157.2ZM34.5461 1.90992C33.6192 2.75252 32.8609 3.51085 32.1868 4.22705C32.8609 3.51085 33.6192 2.79465 34.5461 1.90992Z" fill="black"/>
</g>
<g id="Group_19">
<path id="Vector_23" d="M37.7482 160.486L37.5797 160.359C35.5575 158.632 33.5774 156.778 31.7237 154.925C11.5436 134.745 0.421387 107.908 0.421387 79.3863C0.421387 50.8646 11.5436 24.028 31.7237 3.84792C32.5242 3.04746 33.3668 2.20486 34.42 1.23588L34.5885 1.1095L35.4311 2.03634L35.2626 2.16274C34.2094 3.13172 33.3668 3.93217 32.6084 4.73264C12.6811 24.66 1.68528 51.2016 1.68528 79.3863C1.68528 107.571 12.6811 134.113 32.6084 154.04C34.4621 155.894 36.4422 157.705 38.4223 159.433L38.5908 159.559L37.7482 160.486ZM34.5464 1.61504C33.5774 2.5419 32.7769 3.30024 32.0186 4.05857C11.9228 24.1544 0.842683 50.9067 0.842683 79.3021C0.842683 107.697 11.9228 134.45 32.0186 154.546C33.8302 156.357 35.7682 158.169 37.7061 159.854L38.001 159.559C36.0631 157.874 34.1672 156.104 32.3135 154.293C12.3019 134.281 1.26398 107.655 1.26398 79.3442C1.26398 51.0331 12.3019 24.4072 32.3135 4.3956C33.0719 3.63727 33.8723 2.87894 34.8413 1.95209L34.5464 1.61504Z" fill="black"/>
<path id="Vector_24" d="M37.7903 161.076L37.3269 160.654C35.3046 158.927 33.3245 157.073 31.4287 155.178C11.1644 134.913 0 107.992 0 79.3442C0 50.696 11.1644 23.7331 31.4287 3.51086C32.2292 2.7104 33.0718 1.86782 34.1671 0.898835L34.6306 0.477539L36.0208 2.03633L35.5574 2.45762C34.5042 3.42661 33.6616 4.22707 32.9032 5.02753C13.0602 24.8706 2.10648 51.2859 2.10648 79.3863C2.10648 107.487 13.0602 133.902 32.9032 153.745C34.757 155.599 36.6949 157.41 38.675 159.138L39.1806 159.559L37.7903 161.076Z" fill="black"/>
</g>
</g>
<g id="Group_20">
<g id="Group_21">
<path id="Vector_25" d="M53.7158 142.328L54.2635 141.696C36.6112 126.656 25.3626 104.285 25.3626 79.3442C25.3626 55.9201 35.2631 34.7711 51.0617 19.815L50.514 19.1831C34.5047 34.2655 24.52 55.6674 24.52 79.3442C24.5621 104.538 35.895 127.119 53.7158 142.328Z" fill="black"/>
<path id="Vector_26" d="M53.7577 142.918L53.4628 142.665C34.8415 126.824 24.1406 103.737 24.1406 79.3442C24.1406 67.7165 26.4999 56.4679 31.1763 45.8933C35.6841 35.6979 42.0878 26.5979 50.261 18.8882L50.5559 18.5933L51.6934 19.8572L51.3985 20.1521C43.3939 27.6933 37.1165 36.5827 32.6929 46.6095C28.1429 56.9734 25.7837 68.0114 25.7837 79.3864C25.7837 103.274 36.2739 125.897 54.5161 141.401L54.8531 141.696L53.7577 142.918ZM29.3226 52.8868C26.4156 61.3549 24.9832 70.2442 24.9832 79.3021C24.9832 70.2442 26.4156 61.397 29.3226 52.8868Z" fill="black"/>
</g>
<g id="Group_22">
<path id="Vector_27" d="M53.7156 142.623L53.547 142.497C34.9679 126.656 24.3091 103.653 24.3091 79.3442C24.3091 67.7586 26.6683 56.5099 31.3447 45.9775C35.8526 35.7822 42.2563 26.7243 50.3873 19.0567L50.5558 18.8882L51.3984 19.815L51.2299 19.9414C43.2253 27.5248 36.9058 36.4141 32.4822 46.441C27.8901 56.8048 25.573 67.8849 25.573 79.3021C25.573 103.232 36.0632 125.897 54.3896 141.485L54.5582 141.612L53.7156 142.623ZM50.5558 19.478C42.5512 27.1035 36.1896 36.0349 31.766 46.1039C27.1318 56.5942 24.7725 67.7585 24.7725 79.3021C24.7725 103.4 35.3049 126.234 53.7156 141.991L54.0105 141.696C35.7262 126.024 25.2359 103.316 25.2359 79.3021C25.2359 67.8428 27.5531 56.7206 32.1873 46.2724C36.6109 36.2456 42.8883 27.3562 50.8929 19.7729L50.5558 19.478Z" fill="black"/>
<path id="Vector_28" d="M53.7576 143.213L53.2942 142.834C34.6307 126.951 23.8877 103.779 23.8877 79.3863C23.8877 67.7164 26.2469 56.4257 30.9233 45.8512C35.4312 35.6137 41.8771 26.5137 50.0502 18.8039L50.5136 18.3405L51.9039 19.8993L51.4405 20.3206C43.478 27.8618 37.2007 36.709 32.7771 46.6938C28.227 57.0155 25.9099 68.0113 25.9099 79.3863C25.9099 103.19 36.3581 125.771 54.5581 141.275L55.0636 141.696L53.7576 143.213Z" fill="black"/>
</g>
</g>
<g id="Group_23">
<g id="Group_24">
<path id="Vector_29" d="M69.4719 124.718L70.0196 124.086C57.1701 113.385 48.9969 97.2914 48.9969 79.3021C48.9969 62.8715 55.864 47.9998 66.8599 37.3831L66.3122 36.7512C55.1478 47.4942 48.1964 62.6188 48.1964 79.3021C48.1543 97.5442 56.4539 113.891 69.4719 124.718Z" fill="black"/>
<path id="Vector_30" d="M69.5143 125.308L69.2194 125.055C55.5694 113.68 47.7754 97.0387 47.7754 79.3442C47.7754 63.0401 54.2634 47.8313 66.0175 36.4984L66.3124 36.2035L67.4499 37.4674L67.155 37.7623C55.7379 48.8003 49.4185 63.5456 49.4185 79.3864C49.4185 96.5752 57.0439 112.795 70.2726 123.833L70.6097 124.128L69.5143 125.308ZM48.5759 79.26C48.5759 79.3021 48.5759 79.3021 48.5759 79.3442C48.5759 79.3021 48.5759 79.26 48.5759 79.26ZM59.9509 44.6715C52.6203 54.6141 48.618 66.579 48.5759 79.1757C48.618 66.5368 52.5782 54.6141 59.9509 44.6715Z" fill="black"/>
</g>
<g id="Group_25">
<path id="Vector_31" d="M69.4721 125.013L69.3036 124.886C55.6957 113.553 47.9438 96.9544 47.9438 79.3442C47.9438 63.1243 54.3897 47.9576 66.1438 36.6248L66.3124 36.4562L67.1549 37.3831L67.0286 37.5095C55.5693 48.5474 49.2499 63.4192 49.2499 79.3021C49.2499 96.5752 56.8753 112.837 70.1883 123.917L70.3568 124.044L69.4721 125.013ZM66.2702 37.0882C54.7267 48.2947 48.3651 63.2928 48.3651 79.3442C48.3651 96.7859 56.0327 113.216 69.43 124.465L69.7249 124.17C56.4119 113.006 48.7864 96.7016 48.7864 79.3863C48.7864 63.4613 55.1059 48.5896 66.5651 37.4673L66.2702 37.0882Z" fill="black"/>
<path id="Vector_32" d="M69.5141 125.603L69.0507 125.223C55.3586 113.806 47.5225 97.0808 47.5225 79.3442C47.5225 62.9979 54.0104 47.7049 65.8489 36.3299L66.3123 35.8665L67.7026 37.4252L67.2813 37.8465C55.9063 48.8424 49.6289 63.5456 49.6289 79.3021C49.6289 96.4489 57.2123 112.585 70.441 123.58L70.9465 124.002L69.5141 125.603Z" fill="black"/>
</g>
</g>
</g>
<g id="Group_26">
<g id="Group_27">
<path id="Vector_33" d="M106.335 87.3914C102.67 87.3914 99.7209 84.4002 99.7209 80.7771C99.7209 77.1118 102.712 74.1627 106.335 74.1627C109.958 74.1627 112.95 77.1539 112.95 80.7771C112.992 84.4002 110.001 87.3914 106.335 87.3914ZM106.335 74.9632C103.133 74.9632 100.564 77.5752 100.564 80.7349C100.564 83.8947 103.176 86.5067 106.335 86.5067C109.537 86.5067 112.107 83.8947 112.107 80.7349C112.107 77.5752 109.537 74.9632 106.335 74.9632Z" fill="black"/>
<path id="Vector_34" d="M106.335 87.8127C102.459 87.8127 99.2996 84.653 99.2996 80.777C99.2996 76.9011 102.459 73.7414 106.335 73.7414C110.211 73.7414 113.371 76.9011 113.371 80.777C113.413 84.653 110.253 87.8127 106.335 87.8127ZM100.142 80.7349C100.142 84.1474 102.923 86.928 106.335 86.928C102.923 86.928 100.142 84.1895 100.142 80.7349ZM106.335 75.3844C103.386 75.3844 100.985 77.7858 100.985 80.7349C100.985 83.684 103.386 86.0854 106.335 86.0854C109.284 86.0854 111.686 83.684 111.686 80.7349C111.728 77.7858 109.326 75.3844 106.335 75.3844Z" fill="black"/>
</g>
<g id="Group_28">
<path id="Vector_35" d="M106.335 87.602C102.544 87.602 99.5103 84.5266 99.5103 80.777C99.5103 77.0275 102.586 73.952 106.335 73.952C110.085 73.952 113.16 77.0275 113.16 80.777C113.16 84.5266 110.127 87.602 106.335 87.602ZM106.335 74.3312C102.796 74.3312 99.9316 77.196 99.9316 80.7349C99.9316 84.2738 102.796 87.1386 106.335 87.1386C109.874 87.1386 112.739 84.2738 112.739 80.7349C112.739 77.196 109.874 74.3312 106.335 74.3312ZM106.335 86.7594C103.007 86.7594 100.353 84.0631 100.353 80.777C100.353 77.4488 103.049 74.7946 106.335 74.7946C109.621 74.7946 112.318 77.4909 112.318 80.777C112.36 84.0631 109.663 86.7594 106.335 86.7594ZM106.335 75.1738C103.26 75.1738 100.774 77.6594 100.774 80.7349C100.774 83.8104 103.26 86.296 106.335 86.296C109.411 86.296 111.896 83.8104 111.896 80.7349C111.939 77.6594 109.411 75.1738 106.335 75.1738Z" fill="black"/>
<path id="Vector_36" d="M106.335 88.0234C102.333 88.0234 99.0889 84.7794 99.0889 80.7771C99.0889 76.7747 102.333 73.5308 106.335 73.5308C110.337 73.5308 113.581 76.7747 113.581 80.7771C113.624 84.7372 110.38 88.0234 106.335 88.0234ZM106.335 75.5951C103.47 75.5951 101.195 77.9122 101.195 80.7349C101.195 83.5576 103.512 85.8748 106.335 85.8748C109.2 85.8748 111.475 83.5576 111.475 80.7349C111.475 77.9122 109.2 75.5951 106.335 75.5951Z" fill="black"/>
</g>
</g>
</g>
</svg>
