<svg width="90" height="71" viewBox="0 0 90 71" fill="none" xmlns="http://www.w3.org/2000/svg">
<g id="good-business-charter 1" clip-path="url(#clip0_282_1473)">
<g id="Clip path group">
<mask id="mask0_282_1473" style="mask-type:luminance" maskUnits="userSpaceOnUse" x="0" y="0" width="90" height="71">
<g id="a">
<path id="Vector" d="M90 0H0V71H90V0Z" fill="white"/>
</g>
</mask>
<g mask="url(#mask0_282_1473)">
<g id="Group">
<path id="Vector_2" d="M89.9999 36.2581C87.4185 36.2581 85.177 36.297 82.9395 36.2176C82.5941 36.2053 82.1667 35.711 81.9485 35.3377C80.5216 32.8943 78.5137 31.4011 75.6378 31.3671C72.7722 31.3324 70.6194 32.6778 69.2474 35.1668C67.6763 38.0164 67.6778 40.9739 69.1221 43.8839C70.594 46.8491 73.3966 48.341 76.6346 47.9141C79.0478 47.5961 80.7237 46.1638 81.8793 44.0864C82.2253 43.4644 82.5935 43.2185 83.3099 43.2367C85.4032 43.2894 87.4997 43.2554 89.5924 43.2554C89.6406 47.8266 83.731 53.3464 77.7843 54.1671C73.6827 54.7335 69.8691 53.8354 66.5494 51.2163C63.2395 48.6058 61.4181 45.1518 61.0167 40.8884H45.732V27.4629C40.1854 30.0129 34.8741 30.1173 29.786 26.8318C26.3929 24.6412 24.3419 21.4513 23.5122 17.4724C21.8736 9.61059 26.765 2.05307 34.6879 0.369627C43.8433 -1.57553 50.7582 4.55652 52.0291 9.86638C51.7531 9.89533 51.4874 9.94579 51.2215 9.94711C49.7744 9.955 48.3234 9.88129 46.8815 9.96904C45.244 10.0673 44.0059 9.79837 42.8102 8.3411C41.0401 6.18381 38.4496 5.8813 35.8367 6.62825C32.9599 7.45067 31.3158 9.52657 30.5968 12.3817C30.1689 14.1334 30.2506 15.9727 30.8322 17.6786C32.3138 22.2588 37.2749 24.3617 41.5667 22.2316C43.0974 21.4719 44.1284 20.2731 44.6902 18.4657H38.0907V12.8384C38.3288 12.7784 38.5714 12.7383 38.816 12.7186C45.9784 12.7333 53.1414 12.7024 60.302 12.823C61.7431 12.8581 63.1595 13.209 64.4532 13.8515C69.0615 16.1814 69.548 22.2871 65.4778 25.4673C65.3943 25.5331 65.3228 25.6136 65.2017 25.7306C65.9652 26.2158 66.6779 26.7491 67.4649 27.1216C67.7115 27.2383 68.1856 26.9729 68.5099 26.7965C75.6425 22.9204 84.6669 25.5377 88.5254 32.6556C89.105 33.7248 89.4589 34.9193 89.9983 36.259M52.529 34.6001C54.5787 34.6001 56.5256 34.6054 58.4724 34.5966C59.0146 34.6049 59.5568 34.5789 60.0958 34.5187C61.572 34.3235 62.4692 33.2883 62.4467 31.8554C62.4249 30.4843 61.5516 29.5665 59.9753 29.4932C58.0628 29.4055 56.1437 29.4535 54.2275 29.4445C53.6668 29.4416 53.1058 29.4445 52.529 29.4445V34.6001ZM52.5392 23.3557C54.8136 23.3557 56.973 23.3658 59.1319 23.3445C59.4558 23.3287 59.7726 23.2439 60.0617 23.0957C60.9633 22.6611 61.2366 21.8648 61.1717 20.9211C61.1066 19.9699 60.5942 19.2205 59.6779 19.1828C57.3182 19.0856 54.9519 19.1503 52.5392 19.1503V23.3557Z" fill="white"/>
<path id="Vector_3" d="M9.22931 35.8324C8.55243 35.5348 7.81412 35.3294 7.2104 34.9205C5.95563 34.0694 4.38218 33.9992 3.14912 34.8766C2.47346 35.3449 1.96082 36.0162 1.68389 36.7954C1.40697 37.5746 1.37981 38.4221 1.60628 39.2178C2.0893 40.8551 3.39747 41.9502 4.96636 42.0312C6.62079 42.1165 7.86057 41.2912 8.52117 39.5631H4.03527C4.00466 39.0861 3.98252 38.74 3.95365 38.292H10.1378C10.331 40.6235 8.60041 42.8007 6.19182 43.2645C3.51665 43.7791 0.923755 42.249 0.216918 39.741C-0.542889 37.0427 0.781346 34.2139 3.26309 33.2322C5.59874 32.3085 8.25784 33.2731 9.39213 35.4558L9.22866 35.8324" fill="white"/>
<path id="Vector_4" d="M1.31226 56.8901V46.8467C2.55291 46.9055 3.74537 46.8721 4.90962 47.0395C6.46483 47.2628 7.83075 49.3275 6.2408 51.5662C6.58141 51.9745 7.00516 52.3426 7.25481 52.8063C8.13923 54.4476 7.1593 56.5779 5.29017 56.8543C4.02455 57.0415 2.71008 56.8901 1.31226 56.8901ZM2.75654 55.6241C3.90928 55.6077 5.11151 56.0168 5.80532 54.8879C6.06127 54.4711 6.03543 53.6074 5.76863 53.1865C5.05463 52.0589 3.8639 52.5218 2.75654 52.5064V55.6241ZM2.75198 51.1336C3.75536 51.0847 4.76221 51.3736 5.28388 50.3959C5.38952 50.1546 5.44045 49.8925 5.43293 49.6287C5.42542 49.365 5.35966 49.1062 5.24046 48.8715C4.65432 47.9685 3.68611 48.2408 2.75285 48.3257L2.75198 51.1336Z" fill="white"/>
<path id="Vector_5" d="M35.8208 42.5448C33.9072 43.7763 31.8743 43.646 30.4958 42.0457C29.2706 40.6233 29.2732 38.2684 30.5017 36.7872C31.8103 35.2093 33.7754 35.0197 36.0192 36.3649V33.1621H37.4628C37.4628 34.7488 37.4628 36.2748 37.4628 37.8009C37.4628 39.263 37.4934 40.7264 37.4411 42.1868C37.429 42.5314 37.1398 42.8668 36.9779 43.2051L35.8203 42.5446M30.9817 39.4295C30.9891 40.8993 32.1657 42.121 33.5678 42.1133C34.2604 42.0894 34.9174 41.7971 35.4024 41.2969C35.8874 40.7967 36.1633 40.1271 36.1729 39.4269C36.1603 37.8762 34.9863 36.6758 33.5105 36.7047C33.1674 36.7157 32.8297 36.795 32.5168 36.9379C32.204 37.0808 31.922 37.2846 31.6871 37.5376C31.4521 37.7906 31.2688 38.0879 31.1476 38.4125C31.0264 38.7372 30.9696 39.0827 30.9806 39.4295" fill="white"/>
<path id="Vector_6" d="M9.40517 63.4757C8.69725 63.1785 7.91313 62.9931 7.29682 62.562C6.57012 62.041 5.68124 61.8036 4.79469 61.8938C3.90813 61.984 3.08394 62.3958 2.47465 63.0528C1.81637 63.7922 1.45216 64.7516 1.45216 65.7462C1.45216 66.7408 1.81637 67.7002 2.47465 68.4396C3.73202 69.8611 5.7238 70.0191 7.27489 68.9422C7.8645 68.5333 8.63125 68.3852 9.54606 68.0292C8.80796 70.1922 6.75323 71.1855 4.23241 70.9077C2.12579 70.6756 0.20695 68.4977 0.0163466 66.1237C-0.0727272 64.9491 0.233481 63.7786 0.88531 62.8019C1.53714 61.8252 2.49636 61.0997 3.60741 60.743C4.71237 60.3807 5.90718 60.4149 6.99014 60.8396C8.0731 61.2643 8.97787 62.0536 9.55171 63.0743L9.40517 63.4757Z" fill="white"/>
<path id="Vector_7" d="M25.5682 64.1239C25.4783 62.9163 26.2446 63.3142 26.9843 63.2613C26.9843 64.2281 26.9843 65.1578 26.9843 66.0875C26.9843 67.364 27.0227 68.6429 26.9532 69.9155C26.9365 70.2208 26.5944 70.6991 26.3375 70.7471C26.0675 70.7978 25.7204 70.4279 25.2356 70.1401C24.5626 71.0303 23.2764 71.1492 22.0551 70.8397C21.1975 70.5913 20.4277 70.1011 19.836 69.4265C18.5986 68.0157 18.8209 65.629 20.1519 64.2261C21.5629 62.7392 23.5844 62.6574 25.5682 64.1239ZM23.0678 64.3347C22.3752 64.3371 21.7108 64.6121 21.2155 65.1012C20.7202 65.5904 20.4329 66.2553 20.4145 66.9549C20.3618 68.3746 21.5488 69.6794 22.9308 69.7216C23.2827 69.7277 23.6323 69.6624 23.9588 69.5296C24.2853 69.3967 24.5821 69.1989 24.8315 68.948C25.081 68.6971 25.2781 68.3982 25.4111 68.0689C25.5441 67.7396 25.6104 67.3866 25.606 67.031C25.6101 65.5202 24.5186 64.3608 23.0678 64.3347Z" fill="white"/>
<path id="Vector_8" d="M42.3275 53.8217H36.327C36.7395 55.8399 38.8235 56.5388 40.3262 55.2818C40.7623 54.917 41.3526 54.7404 41.9275 54.591C41.4859 56.5546 39.5178 57.5846 37.6128 57.0585C35.6276 56.5101 34.4345 54.3603 34.9255 52.2146C35.3781 50.2379 37.3289 48.9199 39.2555 49.2898C41.383 49.6978 42.6616 51.5093 42.3275 53.8217ZM40.9312 52.6843C40.7986 51.3986 39.894 50.5509 38.6605 50.5222C37.3968 50.4928 36.4462 51.3595 36.3003 52.7378C37.6013 52.7378 38.8958 52.7404 40.1903 52.7354C40.4369 52.7343 40.6835 52.7023 40.9312 52.6843Z" fill="white"/>
<path id="Vector_9" d="M45.162 68.6311C44.828 69.5267 44.1607 70.2549 43.3027 70.6601C42.4446 71.0652 41.4638 71.1153 40.5697 70.7996C38.6856 70.1707 37.5609 68.0487 38.0515 66.05C38.5391 64.0669 40.3526 62.7825 42.2578 63.0705C44.4069 63.3954 45.6951 65.1484 45.4841 67.6174H39.4309C39.5867 68.7 40.1492 69.4112 40.9756 69.5165C41.7572 69.6161 42.6157 69.3217 43.407 69.0841C43.9571 68.9185 44.4491 68.5559 44.967 68.2815L45.1624 68.6311M44.1024 66.4975C43.8273 65.092 42.962 64.3304 41.7344 64.3343C40.5187 64.3381 39.6347 65.1445 39.4226 66.4975H44.1024Z" fill="white"/>
<path id="Vector_10" d="M19.3206 39.4166C19.318 41.6322 17.5566 43.3602 15.2852 43.3738C13.1006 43.3872 11.2404 41.5355 11.2636 39.3712C11.2873 37.1632 13.0807 35.4212 15.3321 35.4197C15.8558 35.4095 16.3762 35.5057 16.8625 35.7026C17.3488 35.8995 17.791 36.1929 18.1629 36.5657C18.5349 36.9384 18.829 37.3828 19.0279 37.8725C19.2267 38.3622 19.3263 38.8873 19.3206 39.4166ZM12.6678 39.2475C12.6356 39.9479 12.8694 40.6343 13.3213 41.1663C13.7732 41.6984 14.4092 42.0359 15.0991 42.11C16.5282 42.2296 17.8562 41.05 17.9647 39.5631C17.9963 38.8625 17.761 38.1764 17.3071 37.6459C16.8532 37.1153 16.2152 36.7809 15.5246 36.7113C15.1721 36.6874 14.8185 36.7341 14.4839 36.8487C14.1493 36.9633 13.8404 37.1436 13.575 37.3792C13.3095 37.6147 13.0927 37.901 12.937 38.2214C12.7814 38.5419 12.6898 38.8903 12.6678 39.2466" fill="white"/>
<path id="Vector_11" d="M24.457 43.3767C22.2505 43.3811 20.3758 41.5213 20.4096 39.3622C20.4233 38.8306 20.5405 38.3069 20.7545 37.821C20.9686 37.3351 21.2753 36.8966 21.657 36.5306C22.0388 36.1645 22.4883 35.878 22.9796 35.6876C23.471 35.4971 23.9947 35.4063 24.5208 35.4204C25.5648 35.4177 26.5677 35.8313 27.3117 36.5713C28.0557 37.3114 28.4808 38.3181 28.4946 39.373C28.5192 41.5684 26.6997 43.3732 24.4568 43.3776M27.107 39.407C27.0991 38.884 26.9392 38.3748 26.6471 37.943C26.3551 37.5111 25.9438 37.1755 25.4644 36.9781C24.9851 36.7806 24.4589 36.73 23.9513 36.8324C23.4437 36.9349 22.9771 37.1859 22.6096 37.5543C22.2421 37.9226 21.9899 38.3921 21.8844 38.9042C21.7789 39.4163 21.8248 39.9485 22.0163 40.4344C22.2079 40.9204 22.5366 41.3387 22.9616 41.6373C23.3866 41.9359 23.8892 42.1016 24.4067 42.1138C24.7605 42.1178 25.1117 42.0507 25.4397 41.9164C25.7677 41.7821 26.066 41.5832 26.3173 41.3313C26.5686 41.0795 26.7678 40.7796 26.9034 40.4493C27.0389 40.1189 27.1081 39.7646 27.107 39.407Z" fill="white"/>
<path id="Vector_12" d="M17.5391 70.7389H16.2303C16.2303 69.2443 16.2789 67.7936 16.2173 66.3478C16.1489 64.7464 15.0216 63.9375 13.6706 64.4449C12.6653 64.8225 12.4087 65.6907 12.3681 66.6415C12.3262 67.6249 12.3555 68.6117 12.3542 69.5968C12.3542 69.9551 12.3542 70.3131 12.3542 70.7376H11.0667V60.7494L12.2958 60.6816V63.4334C13.4503 63.3542 14.5238 63.1237 15.5534 63.2518C16.6968 63.3939 17.4308 64.3094 17.5072 65.4444C17.6253 67.1774 17.5383 68.9264 17.5383 70.7389" fill="white"/>
<path id="Vector_13" d="M28.0948 56.9428H26.7375V49.3651L28.1519 49.7431C28.1274 49.8073 28.1027 49.8715 28.0778 49.9357C28.639 49.7104 29.1822 49.3873 29.7648 49.2776C31.5699 48.936 33.134 50.0625 33.2923 51.9427C33.4291 53.566 33.3207 55.2113 33.3207 56.9272H31.942C31.942 56.0351 31.9446 55.1402 31.942 54.2456C31.9396 53.661 31.9542 53.0749 31.916 52.4924C31.8309 51.1982 31.2636 50.567 30.1869 50.5232C29.0274 50.4758 28.2478 51.1657 28.1512 52.4589C28.0698 53.5494 28.1078 54.6491 28.0963 55.7446C28.0924 56.1044 28.0963 56.4644 28.0963 56.9426" fill="white"/>
<path id="Vector_14" d="M9.00729 49.4746H10.3854C10.3854 50.9554 10.3589 52.4032 10.3949 53.8495C10.4166 54.7709 10.6713 55.5957 11.725 55.841C12.9605 56.1288 13.9827 55.5696 14.101 54.2933C14.2443 52.7441 14.1351 51.171 14.1351 49.5001L15.5245 49.4316V57.0925L13.9708 56.6075C11.4923 58.1395 9.09716 56.8621 9.0138 53.7199C8.97733 52.3414 9.00772 50.9609 9.00772 49.4746" fill="white"/>
<path id="Vector_15" d="M16.9666 54.5626L18.0629 54.5046C18.2068 54.8104 18.2687 55.2136 18.4934 55.3584C18.8821 55.6351 19.3424 55.7909 19.8176 55.8068C20.0822 55.7932 20.5529 55.2674 20.5216 55.0256C20.4186 54.5957 20.1704 54.2156 19.8198 53.9507C19.4983 53.6875 19.0278 53.6193 18.6349 53.4385C17.4082 52.8745 16.9464 52.0407 17.2354 50.9425C17.3767 50.4279 17.6878 49.9775 18.1171 49.6659C18.5463 49.3543 19.068 49.2002 19.5957 49.229C20.7724 49.2703 21.5222 49.9867 21.7273 51.3117C21.0817 51.5021 20.537 51.5589 20.0966 50.8341C19.9711 50.6277 19.4338 50.5419 19.1414 50.6181C18.9143 50.6769 18.6069 51.0965 18.6354 51.3161C18.7179 51.6492 18.9273 51.9359 19.218 52.1137C19.6088 52.3577 20.0944 52.441 20.5188 52.638C21.7681 53.2178 22.2555 54.3287 21.8526 55.6142C21.4907 56.7663 20.2407 57.3911 18.8459 57.1154C17.61 56.8714 16.8984 55.9308 16.9683 54.5637" fill="white"/>
<path id="Vector_16" d="M48.1717 51.5887C47.7349 51.3443 47.3129 51.0651 46.8566 50.867C46.5226 50.7005 46.1534 50.6188 45.7811 50.6287C45.5988 50.6476 45.2818 51.0894 45.3279 51.2485C45.4397 51.6029 45.6591 51.9128 45.9548 52.1343C46.2657 52.3574 46.6949 52.405 47.0587 52.5616C48.4016 53.1399 48.933 54.2119 48.5586 55.5543C48.2414 56.691 47.0756 57.338 45.7028 57.1392C44.3981 56.9501 43.6441 56.0586 43.6233 54.6217C44.2628 54.4504 44.7637 54.3624 45.1386 55.2039C45.2946 55.5549 45.9906 55.8019 46.4496 55.8166C46.7151 55.825 47.2632 55.2195 47.2152 54.9907C47.1284 54.5739 46.7454 54.1602 46.3849 53.877C46.0577 53.6201 45.5832 53.5648 45.1954 53.375C44.0679 52.8231 43.6437 51.9746 43.9337 50.913C44.0878 50.3839 44.4208 49.9262 44.8746 49.6197C45.3284 49.3132 45.8742 49.1774 46.417 49.236C47.5717 49.3443 48.257 50.0586 48.1717 51.5887Z" fill="white"/>
<path id="Vector_17" d="M54.7362 51.7033C54.0571 51.346 53.6264 51.0867 53.1695 50.8901C52.8306 50.744 52.4411 50.569 52.1057 50.6192C51.8995 50.6501 51.5875 51.1051 51.6188 51.3271C51.7053 51.6599 51.9174 51.9452 52.2095 52.1219C52.6003 52.365 53.0854 52.4479 53.5094 52.6453C54.7503 53.2231 55.239 54.3454 54.8324 55.6237C54.4668 56.7734 53.2133 57.3916 51.8187 57.1099C50.5813 56.8599 49.8736 55.9139 49.9611 54.5872C50.5633 54.4757 51.0728 54.3485 51.4215 55.1725C51.5734 55.5289 52.2536 55.799 52.7103 55.8264C52.9776 55.8424 53.5444 55.256 53.5042 55.0231C53.4319 54.6045 53.0629 54.1754 52.7088 53.888C52.3875 53.6272 51.9093 53.5735 51.5205 53.3855C50.3938 52.8408 49.9357 51.9694 50.2077 50.9399C50.3596 50.4092 50.6898 49.9486 51.1415 49.6373C51.5932 49.3261 52.1381 49.1837 52.6825 49.2348C53.8418 49.3293 54.5247 50.0186 54.7371 51.7029" fill="white"/>
<path id="Vector_18" d="M34.5087 64.6486L33.4521 64.4553V63.3701L34.4568 63.1345V60.7484L35.7513 60.6777V63.131L37.0254 63.3394V64.4713L35.821 64.617V70.7356H34.5087V64.6486Z" fill="white"/>
<path id="Vector_19" d="M28.9111 63.1868C29.9896 63.4599 30.9952 63.6874 32.0101 62.7783V64.3633C30.4718 64.9817 30.2165 65.3542 30.1985 67.0302C30.1863 68.1595 30.185 69.2897 30.1744 70.4188C30.1521 70.5299 30.1186 70.6384 30.0743 70.7426L28.9111 70.8152V63.1868Z" fill="white"/>
<path id="Vector_20" d="M47.1201 63.4016L50.1906 63.2002C50.3086 63.8313 50.4437 64.4221 49.4525 64.6983C48.5604 64.947 48.4024 65.8272 48.3905 66.6627C48.3718 68.0031 48.3855 69.3441 48.3855 70.7408H47.1196L47.1201 63.4016Z" fill="white"/>
<path id="Vector_21" d="M24.828 49.5195H23.53V56.9456H24.828V49.5195Z" fill="white"/>
<path id="Vector_22" d="M24.8151 46.9863H23.5334V48.4976H24.8151V46.9863Z" fill="white"/>
</g>
</g>
</g>
</g>
<defs>
<clipPath id="clip0_282_1473">
<rect width="90" height="71" fill="white"/>
</clipPath>
</defs>
</svg>
