<svg xmlns="http://www.w3.org/2000/svg" width="83" height="73" viewBox="0 0 83 73" fill="none">
  <g clip-path="url(#clip0_806_5578)">
    <path d="M3.82157 3.85605H68.5779V69.1446H3.82157V3.85605ZM0 72.9997H72.4079V0H0V72.9997Z" fill="black"/>
    <mask id="mask0_806_5578" style="mask-type:luminance" maskUnits="userSpaceOnUse" x="0" y="0" width="83" height="73">
      <path d="M83 0H0V72.9997H83V0Z" fill="white"/>
    </mask>
    <g mask="url(#mask0_806_5578)">
      <path d="M50.2807 50.5556C50.2212 50.4887 50.1883 50.402 50.1883 50.3122C50.1883 50.2223 50.2212 50.1356 50.2807 50.0687C52.4916 46.7625 54.6976 43.4531 56.8986 40.1405C56.9546 40.0564 57.0074 39.9707 57.0847 39.8484H56.8007C55.223 39.8484 53.6453 39.8523 52.0699 39.8429C51.9922 39.8371 51.9146 39.855 51.8472 39.8942C51.7797 39.9335 51.7255 39.9923 51.6916 40.0629C50.3244 42.2404 48.9543 44.4153 47.5812 46.5876C47.5361 46.6587 47.4862 46.7265 47.4302 46.8083C47.3764 46.7233 47.3384 46.6616 47.3014 46.5999C45.9772 44.427 44.6543 42.252 43.3327 40.0749C43.2976 40.0006 43.241 39.9387 43.1702 39.8976C43.0995 39.8565 43.018 39.8381 42.9366 39.8448C41.545 39.8549 40.1528 39.8503 38.7612 39.8503H37.6324C37.6968 39.9529 37.7351 40.0126 37.7747 40.0733C40.0071 43.4036 42.2408 46.733 44.476 50.0616C44.5306 50.1218 44.5614 50.2002 44.5624 50.2818C44.5634 50.3633 44.5346 50.4425 44.4815 50.504C42.0574 54.1633 39.6375 57.8253 37.2218 61.4901C37.1706 61.5681 37.1252 61.6508 37.0586 61.7635H37.3297C38.9473 61.7635 40.564 61.7596 42.1816 61.768C42.2594 61.7748 42.3375 61.7581 42.4059 61.7201C42.4743 61.6822 42.53 61.6246 42.566 61.5547C43.8834 59.4792 45.2042 57.4065 46.5286 55.3368C46.7621 54.971 46.9974 54.6055 47.2515 54.2088C47.3159 54.3091 47.3632 54.3809 47.4092 54.4542C48.8936 56.8247 50.3774 59.1959 51.8606 61.5677C51.8915 61.6315 51.9406 61.6845 52.0016 61.72C52.0626 61.7555 52.1326 61.7719 52.2029 61.767C53.9567 61.7602 55.7105 61.7631 57.4643 61.7625C57.5287 61.7625 57.597 61.7518 57.6865 61.744C57.6031 61.6141 57.5387 61.5132 57.472 61.4129C55.0765 57.793 52.6794 54.174 50.2807 50.5556Z" fill="black"/>
      <path d="M30.5027 29.2296H20.4721C20.9074 28.5792 21.4408 28.0013 22.053 27.5169C23.1397 26.697 24.2534 25.9133 25.3694 25.1349C26.3904 24.4868 27.355 23.7525 28.2527 22.9399C29.061 22.1822 29.6738 21.2372 30.038 20.1868C30.4022 19.1364 30.5068 18.0123 30.3427 16.9119C30.0561 14.6072 28.821 12.9455 26.7645 11.9129C25.1673 11.1351 23.3684 10.8819 21.6209 11.189C20.6636 11.3049 19.7419 11.6258 18.9176 12.1302C18.0933 12.6347 17.3856 13.311 16.8418 14.1138C16.0267 15.3267 15.5324 16.7294 15.4058 18.1889C15.3507 18.7083 15.353 19.2358 15.3285 19.7756H19.4933C19.4978 19.6967 19.5033 19.6328 19.5062 19.5695C19.5209 18.7827 19.6496 18.0023 19.8884 17.2531C20.3578 15.9488 21.129 14.9736 22.6194 14.8626C23.1332 14.7963 23.6554 14.8623 24.1371 15.0543C24.6189 15.2463 25.0446 15.5582 25.3746 15.9608C26.2233 17.0015 26.2922 18.7667 25.5562 19.9889C24.9351 21.0211 24.0245 21.7392 23.0534 22.4079C21.5797 23.4216 20.0957 24.424 18.6745 25.5095C16.6512 27.0569 15.2435 29.0234 14.9396 31.6512C14.889 32.0891 14.8752 32.5321 14.8452 32.9778H30.5027V29.2296Z" fill="black"/>
      <path d="M19.2291 61.56C20.9443 62.197 22.8017 62.3392 24.5926 61.9706C26.0798 61.7308 27.4632 61.0525 28.5684 60.021C29.2461 59.3822 29.7792 58.6035 30.1311 57.738C30.4831 56.8726 30.6457 55.9407 30.6078 55.0061C30.6332 53.9188 30.2881 52.8556 29.63 51.9937C28.9718 51.1319 28.0405 50.5237 26.9914 50.2704C26.9341 50.2501 26.8782 50.2261 26.8239 50.1986C27.6587 49.9942 28.3953 49.5 28.9049 48.8028C29.4101 48.0938 29.7258 47.2657 29.8217 46.3981C29.9175 45.5305 29.7903 44.6526 29.4523 43.8489C28.8405 42.2545 27.6141 41.2167 26.0831 40.5473C24.6867 39.9439 23.1573 39.7217 21.6488 39.9033C20.1055 40.0366 18.6523 40.6921 17.5252 41.7633C16.4103 42.8584 15.6805 44.2903 15.4465 45.8417C15.3621 46.315 15.3271 46.7967 15.2672 47.2879H19.3885C19.4246 46.9373 19.4368 46.5961 19.498 46.2634C19.6879 45.235 20.1245 44.3531 21.0789 43.8327C21.7257 43.4894 22.4682 43.3751 23.1872 43.5081C24.9381 43.7921 26.0132 45.0825 25.602 47.0074C25.4227 47.8429 24.801 48.3058 24.0588 48.6197C23.3191 48.8996 22.5289 49.0178 21.7405 48.9664C21.5512 48.9625 21.3616 48.9664 21.1668 48.9664V52.0301C21.2763 52.0301 21.3561 52.0269 21.4356 52.0301C22.285 52.0749 23.1421 52.0256 23.9738 52.2664C24.9259 52.542 25.6571 53.0695 25.9491 54.0716C26.0959 54.6302 26.1295 55.2129 26.048 55.7849C25.9907 56.3534 25.7683 56.8923 25.4085 57.3339C24.9277 57.8857 24.2961 58.2823 23.5928 58.4739C22.8895 58.6656 22.1457 58.6438 21.4546 58.4113C20.1696 58.0052 19.4535 57.056 19.1203 55.7868C19.0002 55.3298 18.9471 54.8542 18.8608 54.3699H14.7266C14.7887 55.0045 14.8061 55.63 14.9172 56.237C15.3866 58.8015 16.7847 60.6235 19.2291 61.5607" fill="black"/>
      <path d="M44.804 24.2728C44.8867 24.4173 44.931 24.5809 44.9328 24.7477C44.9405 27.4 44.9423 30.0523 44.9382 32.7046V32.9834H49.7222V32.6633C49.7222 30.0513 49.7237 27.4395 49.7267 24.8279C49.7277 24.685 49.7652 24.5448 49.8355 24.4208C52.2553 20.3571 54.6785 16.2955 57.1052 12.2359C57.3273 11.8646 57.5469 11.4916 57.7884 11.0855H57.5073C55.8974 11.0855 54.2875 11.0894 52.6809 11.08C52.6035 11.0733 52.526 11.0912 52.4592 11.1312C52.3924 11.1712 52.3398 11.2313 52.3086 11.303C50.7286 14.0217 49.1439 16.7382 47.5546 19.4523C47.5118 19.5257 47.4642 19.5968 47.4023 19.6942C47.335 19.5861 47.2829 19.5072 47.2352 19.4254C45.6423 16.7136 44.0509 14.0011 42.4609 11.2877C42.4294 11.2201 42.3778 11.1639 42.3134 11.1269C42.249 11.0899 42.1748 11.0739 42.101 11.081C40.4766 11.0888 38.8512 11.0855 37.2262 11.0855C37.1496 11.0855 37.0739 11.0923 36.9712 11.0972C37.0324 11.2059 37.0768 11.2894 37.1251 11.3712C39.6861 15.6712 42.2457 19.9717 44.804 24.2728Z" fill="black"/>
      <path d="M78.1675 1.47168H79.5079C80.3772 1.47168 81.0099 1.78817 81.0099 2.69092C81.0099 3.55341 80.3772 3.96793 79.5079 3.96793H78.7235V5.79257H78.1675V1.47168ZM79.4296 3.5203C80.0952 3.5203 80.4619 3.24373 80.4619 2.69092C80.4619 2.12415 80.0952 1.91964 79.4296 1.91964H78.7235V3.5203H79.4296ZM79.8273 3.52711L81.1345 5.79257H80.5141L79.3974 3.81666L79.8273 3.52711Z" fill="black"/>
      <path d="M79.397 7.26559C78.6843 7.26559 77.9876 7.05252 77.395 6.65331C76.8024 6.25411 76.3405 5.68671 76.0678 5.02286C75.795 4.35901 75.7237 3.62852 75.8627 2.92378C76.0017 2.21904 76.345 1.5717 76.8489 1.06361C77.3529 0.555516 77.995 0.209503 78.694 0.0693212C79.393 -0.0708604 80.1176 0.00108586 80.7761 0.276062C81.4345 0.551038 81.9973 1.01669 82.3933 1.61414C82.7893 2.21159 83.0006 2.91401 83.0006 3.63255C82.9995 4.59575 82.6195 5.51918 81.9439 6.20027C81.2684 6.88135 80.3524 7.26447 79.397 7.26559ZM79.397 0.578618C78.7979 0.578618 78.2123 0.757728 77.7141 1.0933C77.216 1.42887 76.8277 1.90583 76.5985 2.46386C76.3692 3.0219 76.3092 3.63594 76.4261 4.22835C76.543 4.82075 76.8315 5.36491 77.2551 5.79201C77.6787 6.21911 78.2185 6.50997 78.8061 6.62781C79.3937 6.74564 80.0027 6.68516 80.5563 6.45402C81.1098 6.22287 81.5829 5.83144 81.9157 5.32923C82.2486 4.82701 82.4262 4.23656 82.4262 3.63255C82.4254 2.82286 82.1059 2.04658 81.5381 1.47404C80.9702 0.901506 80.2002 0.579477 79.397 0.578618Z" fill="black"/>
    </g>
  </g>
  <defs>
    <clipPath id="clip0_806_5578">
      <rect width="83" height="73" fill="white"/>
    </clipPath>
  </defs>
</svg>