<svg width="109" height="95" viewBox="0 0 109 95" fill="none" xmlns="http://www.w3.org/2000/svg">
<g id="Desktop/Assets/Logo" clip-path="url(#clip0_272_2730)">
<path id="Vector" d="M5.01868 5.01814H90.0602V89.9827H5.01868V5.01814ZM0 94.9996H95.0898V0H0V94.9996Z" fill="white"/>
<g id="Group">
<g id="Clip path group">
<mask id="mask0_272_2730" style="mask-type:luminance" maskUnits="userSpaceOnUse" x="0" y="0" width="109" height="95">
<g id="a">
<path id="Vector_2" d="M109 0.000244141H0V94.9998H109V0.000244141Z" fill="white"/>
</g>
</mask>
<g mask="url(#mask0_272_2730)">
<g id="Group_2">
<path id="Vector_3" d="M66.0307 65.7918C65.9526 65.7047 65.9094 65.5919 65.9094 65.475C65.9094 65.358 65.9526 65.2452 66.0307 65.1581C68.9342 60.8555 71.8312 56.5487 74.7217 52.2379C74.7953 52.1285 74.8646 52.0169 74.9661 51.8577H74.5932C72.5212 51.8577 70.4493 51.8627 68.3804 51.8505C68.2784 51.843 68.1765 51.8663 68.0879 51.9174C67.9993 51.9684 67.9281 52.0449 67.8835 52.1369C66.0882 54.9706 64.2888 57.801 62.4856 60.6279C62.4264 60.7204 62.3608 60.8087 62.2873 60.9152C62.2166 60.8045 62.1667 60.7242 62.1181 60.644C60.3791 57.8162 58.6418 54.9857 56.9062 52.1525C56.8602 52.0558 56.7858 51.9753 56.6929 51.9218C56.6 51.8683 56.493 51.8443 56.3861 51.853C54.5586 51.8661 52.7302 51.8602 50.9027 51.8602H49.4202C49.5048 51.9937 49.5551 52.0714 49.6071 52.1504C52.5388 56.4844 55.4724 60.8172 58.4077 65.1488C58.4794 65.2272 58.5198 65.3292 58.5211 65.4354C58.5224 65.5416 58.4846 65.6445 58.4149 65.7246C55.2315 70.4866 52.0536 75.2523 48.8811 80.0216C48.8139 80.123 48.7543 80.2307 48.6667 80.3773H49.0228C51.1471 80.3773 53.2702 80.3723 55.3945 80.3832C55.4967 80.392 55.5992 80.3703 55.6891 80.3209C55.779 80.2715 55.8521 80.1966 55.8994 80.1057C57.6294 77.4046 59.364 74.7074 61.1033 72.0139C61.4099 71.5378 61.719 71.0621 62.0526 70.5459C62.1371 70.6765 62.1993 70.7698 62.2598 70.8653C64.2091 73.9502 66.1576 77.036 68.1055 80.1226C68.1462 80.2056 68.2106 80.2745 68.2907 80.3207C68.3707 80.3669 68.4628 80.3883 68.555 80.382C70.8582 80.3731 73.1614 80.3769 75.4646 80.3761C75.5492 80.3761 75.6388 80.3621 75.7564 80.352C75.6469 80.183 75.5623 80.0516 75.4748 79.9211C72.3288 75.2103 69.1808 70.5006 66.0307 65.7918Z" fill="white"/>
<path id="Vector_4" d="M40.0571 38.0387H26.8844C27.4561 37.1923 28.1566 36.4403 28.9606 35.8099C30.3876 34.7428 31.8502 33.7231 33.3158 32.7101C34.6566 31.8666 35.9233 30.911 37.1023 29.8535C38.1638 28.8675 38.9686 27.6377 39.4469 26.2707C39.9251 24.9037 40.0625 23.4408 39.847 22.0089C39.4707 19.0095 37.8486 16.8471 35.148 15.5033C33.0504 14.4911 30.6879 14.1616 28.3931 14.5613C27.1359 14.7121 25.9254 15.1297 24.8429 15.7862C23.7605 16.4426 22.831 17.3227 22.1169 18.3674C21.0465 19.9459 20.3974 21.7714 20.231 23.6707C20.1587 24.3466 20.1617 25.0331 20.1296 25.7356H25.599C25.6049 25.633 25.6121 25.5497 25.6159 25.4674C25.6352 24.4434 25.8043 23.4279 26.1178 22.4528C26.7343 20.7555 27.747 19.4865 29.7043 19.342C30.3792 19.2557 31.0648 19.3416 31.6975 19.5914C32.3302 19.8413 32.8892 20.2472 33.3226 20.7711C34.4372 22.1255 34.5277 24.4227 33.5611 26.0131C32.7454 27.3565 31.5496 28.2909 30.2743 29.1612C28.339 30.4804 26.3901 31.7849 24.5237 33.1976C21.8666 35.2113 20.0179 37.7704 19.6188 41.1901C19.5524 41.76 19.5342 42.3366 19.4949 42.9166H40.0571V38.0387Z" fill="white"/>
<path id="Vector_5" d="M25.2523 80.1123C27.5048 80.9413 29.9441 81.1263 32.296 80.6467C34.249 80.3346 36.0658 79.4518 37.5172 78.1095C38.4072 77.2782 39.1072 76.2648 39.5695 75.1385C40.0317 74.0122 40.2452 72.7995 40.1955 71.5833C40.2288 70.1683 39.7756 68.7846 38.9113 67.6631C38.047 66.5415 36.824 65.7499 35.4462 65.4203C35.371 65.3939 35.2975 65.3627 35.2263 65.327C36.3225 65.0609 37.2899 64.4178 37.9591 63.5105C38.6225 62.5878 39.0371 61.5101 39.163 60.3811C39.2889 59.252 39.1219 58.1096 38.6779 57.0637C37.8745 54.9886 36.2639 53.6381 34.2533 52.767C32.4195 51.9817 30.4111 51.6926 28.43 51.9289C26.4033 52.1024 24.4948 52.9555 23.0147 54.3495C21.5506 55.7745 20.5921 57.6381 20.2848 59.657C20.174 60.2729 20.128 60.8998 20.0493 61.539H25.4616C25.509 61.0827 25.5251 60.6387 25.6054 60.2058C25.8549 58.8675 26.4283 57.7197 27.6816 57.0425C28.531 56.5957 29.5061 56.447 30.4503 56.6201C32.7497 56.9897 34.1616 58.6689 33.6216 61.174C33.3861 62.2613 32.5696 62.8637 31.5949 63.2722C30.6236 63.6364 29.5858 63.7902 28.5505 63.7234C28.3019 63.7183 28.0528 63.7234 27.797 63.7234V67.7104C27.9408 67.7104 28.0456 67.7061 28.1501 67.7104C29.2655 67.7687 30.3911 67.7045 31.4833 68.0179C32.7336 68.3766 33.6939 69.063 34.0774 70.3671C34.2701 71.094 34.3143 71.8523 34.2072 72.5967C34.1321 73.3366 33.8399 74.0379 33.3675 74.6126C32.736 75.3307 31.9066 75.8468 30.983 76.0962C30.0593 76.3456 29.0826 76.3172 28.175 76.0147C26.4875 75.4862 25.5471 74.251 25.1094 72.5992C24.9517 72.0044 24.8819 71.3856 24.7686 70.7553H19.3394C19.421 71.5812 19.4438 72.3952 19.5897 73.1852C20.2062 76.5224 22.0421 78.8936 25.2523 80.1131" fill="white"/>
<path id="Vector_6" d="M58.8384 31.5882C58.947 31.7763 59.0053 31.9892 59.0076 32.2063C59.0177 35.6579 59.0201 39.1095 59.0147 42.5611V42.924H65.2973V42.5074C65.2973 39.1082 65.2993 35.7093 65.3032 32.3106C65.3045 32.1247 65.3538 31.9423 65.4461 31.7809C68.6239 26.4925 71.8062 21.2068 74.993 15.9238C75.2848 15.4405 75.5731 14.9552 75.8903 14.4267H75.5211C73.4069 14.4267 71.2927 14.4318 69.1828 14.4195C69.0812 14.4108 68.9794 14.4341 68.8917 14.4861C68.804 14.5382 68.7349 14.6164 68.694 14.7097C66.6189 18.2478 64.5379 21.7829 62.4507 25.315C62.3945 25.4105 62.3319 25.503 62.2507 25.6298C62.1624 25.4891 62.0939 25.3864 62.0313 25.28C59.9394 21.7509 57.8494 18.2209 55.7614 14.6899C55.72 14.6018 55.6523 14.5287 55.5677 14.4806C55.4831 14.4324 55.3856 14.4115 55.2887 14.4208C53.1555 14.4309 51.021 14.4267 48.8869 14.4267C48.7863 14.4267 48.6869 14.4356 48.552 14.4419C48.6323 14.5834 48.6907 14.692 48.7541 14.7984C52.1174 20.3943 55.4788 25.9909 58.8384 31.5882Z" fill="white"/>
<path id="Vector_7" d="M102.654 1.91528H104.414C105.556 1.91528 106.386 2.32716 106.386 3.50196C106.386 4.62438 105.556 5.16383 104.414 5.16383H103.384V7.53836H102.654V1.91528ZM104.311 4.58129C105.185 4.58129 105.667 4.22137 105.667 3.50196C105.667 2.76438 105.185 2.49825 104.311 2.49825H103.384V4.58129H104.311ZM104.833 4.59016L106.55 7.53836H105.735L104.269 4.96698L104.833 4.59016Z" fill="white"/>
<path id="Vector_8" d="M104.268 9.45537C103.332 9.45537 102.417 9.17808 101.639 8.65857C100.861 8.13906 100.254 7.40066 99.8959 6.53674C99.5377 5.67283 99.444 4.7222 99.6266 3.80507C99.8092 2.88794 100.26 2.0455 100.922 1.38429C101.584 0.723079 102.427 0.272788 103.345 0.0903596C104.263 -0.0920685 105.214 0.00156025 106.079 0.359406C106.944 0.717252 107.683 1.32324 108.203 2.10075C108.723 2.87825 109 3.79235 109 4.72744C108.999 5.98092 108.5 7.18264 107.613 8.06899C106.726 8.95533 105.523 9.45392 104.268 9.45537ZM104.268 0.753143C103.481 0.753143 102.712 0.986232 102.058 1.42293C101.404 1.85963 100.894 2.48034 100.593 3.20654C100.292 3.93275 100.213 4.73185 100.366 5.50279C100.52 6.27373 100.899 6.98188 101.455 7.53769C102.011 8.09351 102.72 8.47203 103.492 8.62537C104.264 8.77872 105.064 8.70002 105.79 8.39921C106.517 8.09841 107.139 7.58901 107.576 6.93544C108.013 6.28187 108.246 5.51348 108.246 4.72744C108.245 3.67374 107.826 2.66351 107.08 1.91842C106.334 1.17334 105.323 0.754262 104.268 0.753143Z" fill="white"/>
</g>
</g>
</g>
</g>
</g>
<defs>
<clipPath id="clip0_272_2730">
<rect width="109" height="95" fill="white"/>
</clipPath>
</defs>
</svg>
