 <svg
      xmlns="http://www.w3.org/2000/svg"
      width="118"
      height="53"
      viewBox="0 0 118 53"
      fill="none"
    >
      <g clipPath="url(#clip0_190_4295)">
        <mask
          id="mask0_190_4295"
          style="mask-type:luminance"
          maskUnits="userSpaceOnUse"
          x="0"
          y="0"
          width="118"
          height="53"
        >
          <path d="M118 0H0V53H118V0Z" fill="white" />
        </mask>
        <g mask="url(#mask0_190_4295)">
          <path
            d="M118 40.2454H107.425C107.314 38.8251 107.231 37.7724 107.133 36.5039C105.863 37.3194 104.814 38.1118 103.662 38.7154C97.2782 42.0569 90.4418 39.2954 88.2686 32.5372C85.3982 23.5994 89.8209 14.6119 98.2593 12.8483C100.976 12.2811 103.917 12.7597 106.885 12.7597C107.8 9.14449 107.176 5.92107 104.458 2.40799L115.152 0C115.204 1.08468 115.271 1.85034 115.271 2.61599C115.279 12.5019 115.329 22.3884 115.241 32.2737C115.217 34.9535 116.329 37.0093 118 38.926V40.2454ZM107.103 26.0763C107.103 23.6581 107.153 21.2387 107.089 18.8217C107.018 16.1266 105.792 14.2508 103.92 13.7646C102.776 13.5072 101.578 13.6465 100.526 14.1589C99.4749 14.6713 98.6345 15.5255 98.1468 16.5777C96.8267 19.1344 96.1076 21.9516 96.0429 24.82C95.9782 27.6885 96.5695 30.5345 97.773 33.1465C99.106 36.1594 102.267 37.0578 105.332 35.7772C106.561 35.2629 107.2 34.5305 107.134 33.1108C107.026 30.7704 107.105 28.4218 107.101 26.077"
            fill="#1D1D1B"
          />
          <path
            d="M39.6271 53.0001L35.7885 46.6834C37.6247 46.4352 39.0793 46.3299 40.4886 46.0217C41.9466 45.7689 43.3659 45.3334 44.7121 44.7259C46.9932 43.5653 47.6413 41.29 46.6388 38.9834C43.8609 32.5909 41.1613 26.16 38.2799 19.8114C37.2451 17.5336 35.7834 15.444 34.4517 13.1572H48.6762C48.6762 13.3831 48.7635 13.697 48.6639 13.7736C45.8252 15.9429 46.5987 18.3988 47.8082 21.0977C49.2783 24.3754 50.4845 27.7691 51.725 31.1412C52.054 31.8559 52.1252 32.6602 51.9268 33.4203C49.8099 38.0947 47.7416 42.8047 45.2819 47.3055C44.1222 49.4276 42.1353 51.114 40.5223 52.9969L39.6271 53.0001Z"
            fill="#1D1D1B"
          />
          <path
            d="M0.289755 39.2382C0.369955 38.9191 0.354432 38.7201 0.446921 38.6493C3.8289 36.0014 3.91945 32.3862 3.81014 28.5502C3.63767 22.4012 3.64091 16.2481 3.81985 10.0909C3.88452 7.64847 3.3671 5.66351 1.53803 4.00076C0.978649 3.39544 0.464618 2.7508 0 2.07194C1.01802 2.00814 1.64863 1.93348 2.27923 1.93285C8.02323 1.92391 13.7724 1.78099 19.508 1.99282C22.18 2.09156 24.8222 2.5825 27.3475 3.44948C30.4042 4.51183 32.3982 6.7903 32.6026 10.1898C32.752 11.7369 32.441 13.2935 31.7077 14.669C30.9744 16.0445 29.8505 17.1792 28.4736 17.9344C27.2796 18.6567 25.9512 19.1633 24.5987 19.8084C26.2015 20.4522 27.808 20.962 29.284 21.7174C32.7914 23.5135 34.5248 26.3975 34.279 30.3189C34.0416 34.1274 31.8646 36.589 28.341 37.7987C26.2498 38.5832 24.0492 39.0471 21.8157 39.1744C14.685 39.3454 7.5472 39.2382 0.288461 39.2382M12.8255 37.9576C16.842 38.0571 20.9568 38.5555 23.3945 34.7533C24.4804 33.1514 25.0601 31.2676 25.0601 29.3405C25.0601 27.4133 24.4804 25.5295 23.3945 23.9276C20.916 20.0885 16.7754 20.8012 12.8242 20.858L12.8255 37.9576ZM12.8385 3.40418V19.1563C16.4028 19.2431 20.0545 19.8754 22.1908 16.3399C23.1492 14.8383 23.6665 13.1037 23.685 11.3293C23.7035 9.55489 23.2225 7.81021 22.2956 6.28943C20.222 2.71637 16.4986 3.38887 12.8385 3.40418Z"
            fill="#1D1D1B"
          />
          <path
            d="M55.3346 13.11H65.9495C66.0685 14.0722 66.1785 14.9642 66.2502 15.5467C68.9208 14.5162 71.4826 13.0309 74.223 12.5708C80.2167 11.564 84.0249 14.8646 84.1976 20.8201C84.3153 24.8449 84.3353 28.88 84.1808 32.9022C84.1019 34.9778 84.5604 36.6118 86.2905 37.863C86.7347 38.2893 87.1331 38.7597 87.4793 39.2667H73.0912C73.075 39.12 72.998 38.9062 73.0537 38.8641C75.8852 36.7496 76.1375 33.8363 75.948 30.641C75.7578 27.429 75.8923 24.1967 75.9111 20.9752C75.9234 18.8543 75.4403 16.9121 73.1875 16.1707C72.0856 15.7931 70.899 15.7244 69.7599 15.9722C68.6207 16.22 67.5735 16.7746 66.7347 17.5744C66.3352 18.0789 66.1358 18.7097 66.1739 19.3488C66.1306 24.3288 66.1092 29.31 66.1914 34.2887C66.2867 35.1281 66.6093 35.9268 67.1253 36.601C67.8593 37.5534 68.6511 38.4611 69.4964 39.319H55.0087C55.0287 39.1244 54.9712 38.8201 55.0805 38.7448C58.0065 36.6839 58.2904 33.7553 58.0149 30.5663C57.87 28.8934 58.0078 27.1987 57.9851 25.5149C57.9282 21.2808 58.9863 16.7985 54.7441 13.4794L55.3314 13.1119"
            fill="#1D1D1B"
          />
        </g>
      </g>
      <defs>
        <clipPath id="clip0_190_4295">
          <rect width="118" height="53" fill="white" />
        </clipPath>
      </defs>
    </svg>