<svg
      xmlns="http://www.w3.org/2000/svg"
      width="132"
      height="22"
      viewBox="0 0 132 22"
      fill="none"
    >
      <g clipPath="url(#clip0_190_3664)">
        <mask
          id="mask0_190_3664"
          style="mask-type:luminance"
          maskUnits="userSpaceOnUse"
          x="0"
          y="0"
          width="132"
          height="22"
        >
          <path d="M131.329 0H0V21.8788H131.329V0Z" fill="white" />
        </mask>
        <g mask="url(#mask0_190_3664)">
          <path
            d="M18.2442 0C18.2442 6.84083 18.2293 13.681 18.2655 20.5212C18.2694 21.2675 18.0568 21.4362 17.3647 21.3799C16.6003 21.3307 15.8336 21.3292 15.069 21.3754C14.6128 21.3954 14.4422 21.2675 14.4706 20.7939C14.5107 20.1309 14.4803 19.4634 14.4803 18.5847C13.6351 19.8321 12.442 20.8036 11.0492 21.3786C6.62889 23.0283 1.52557 20.2556 0.323077 15.5536C0.246831 15.2563 0.276554 14.9113 0 14.6826V11.581C0.278376 11.0092 0.486654 10.4058 0.620308 9.78406C2.66022 4.41194 10.0884 2.28997 13.8923 7.01852C13.968 7.08851 14.0497 7.15165 14.1366 7.2072V0H18.2442ZM9.21609 8.27077C8.57574 8.2626 7.94013 8.38157 7.34608 8.62079C6.75203 8.86 6.21135 9.21471 5.75535 9.66436C5.29935 10.114 4.9371 10.6497 4.68958 11.2403C4.44206 11.8309 4.3142 12.4648 4.31338 13.1052C4.31257 13.7456 4.43883 14.3798 4.68485 14.9711C4.93087 15.5624 5.29176 16.0989 5.74662 16.5497C6.20148 17.0005 6.74126 17.3566 7.3347 17.5973C7.92814 17.8381 8.56344 17.9586 9.20382 17.9521C9.84999 17.9696 10.4931 17.8575 11.0953 17.6225C11.6975 17.3875 12.2465 17.0343 12.71 16.5838C13.1735 16.1332 13.5421 15.5944 13.7941 14.9991C14.0461 14.4038 14.1763 13.7641 14.1771 13.1177C14.178 12.4713 14.0493 11.8313 13.7989 11.2354C13.5484 10.6395 13.1812 10.0997 12.7188 9.64799C12.2565 9.19625 11.7083 8.84167 11.1067 8.60513C10.5052 8.3686 9.86231 8.25491 9.21609 8.27077Z"
            fill="#1D1D1B"
          />
          <path
            d="M45.5809 14.9676C45.8919 15.9828 46.5426 16.8602 47.4238 17.4525C48.305 18.0449 49.3631 18.3162 50.4206 18.221C51.201 18.2067 51.9692 18.0246 52.6729 17.6869C53.3767 17.3493 53.9995 16.8642 54.4991 16.2645C54.7239 15.9789 54.8758 15.975 55.1569 16.1624C55.9284 16.6793 56.7141 17.1684 57.5024 17.655C57.7731 17.8217 57.8972 17.9328 57.6471 18.2624C56.1839 20.0739 54.1176 21.2984 51.8259 21.712C49.5342 22.1256 47.1702 21.7007 45.166 20.5149C43.2497 19.4059 41.8378 17.5973 41.2272 15.4691C40.6165 13.3409 40.8546 11.0588 41.8913 9.1025C42.8005 7.4854 44.1718 6.1766 45.8295 5.34383C47.4872 4.51105 49.3559 4.19223 51.1959 4.42822C53.0094 4.62217 54.72 5.36641 56.0981 6.56098C57.4762 7.75554 58.4558 9.34321 58.9052 11.1107C59.1367 12.0893 59.1927 13.1011 59.0706 14.0992C58.997 14.7731 58.7857 14.9948 58.0665 14.987C54.2077 14.9457 50.3488 14.9676 46.49 14.9676H45.5854M45.4911 11.4487C48.3858 11.4487 51.1695 11.4228 53.9524 11.4648C54.7731 11.4771 54.6574 11.1689 54.3718 10.6895C53.9347 9.86361 53.2615 9.18671 52.4381 8.74512C51.6146 8.30354 50.6783 8.1173 49.7486 8.21016C47.719 8.35231 46.3239 9.44302 45.4911 11.4487Z"
            fill="#1D1D1B"
          />
          <path
            d="M32.6701 14.9673C30.6994 14.9673 28.7286 14.999 26.7578 14.9518C25.9624 14.9324 26.0432 15.2103 26.323 15.7272C27.9571 18.735 32.5629 19.1389 34.8742 16.438C35.258 15.9895 35.4809 15.9992 35.908 16.3087C36.5266 16.7567 37.1728 17.1655 37.8426 17.5325C38.3595 17.8136 38.4061 18.034 38.0113 18.4876C37.0309 19.6538 35.7845 20.5671 34.3771 21.1504C32.9696 21.7338 31.4425 21.97 29.9246 21.8392C28.0603 21.7482 26.2698 21.0824 24.7989 19.9332C23.328 18.7841 22.2488 17.2079 21.7094 15.4209C20.4171 10.5715 23.2647 5.905 28.2795 4.65921C33.1476 3.45026 38.1579 6.25328 39.3662 10.8623C39.6463 11.9983 39.7019 13.1781 39.5297 14.3354C39.4651 14.8523 39.2564 14.9912 38.7485 14.9815C36.7235 14.9537 34.6971 14.9699 32.6747 14.9699M35.1042 11.427C34.7865 10.4347 34.1463 9.57707 33.2854 8.9902C32.4245 8.40334 31.3921 8.12095 30.3524 8.18786C28.2989 8.28995 26.3831 9.74574 26.0962 11.427H35.1042Z"
            fill="#1D1D1B"
          />
          <path
            d="M85.2962 4.38525C90.4447 4.40981 94.3708 8.20338 94.3559 13.1393C94.341 18.0753 90.3181 21.896 85.1566 21.8566C80.0701 21.8191 76.0678 17.9151 76.1169 13.0444C76.1667 8.1239 80.1547 4.36199 85.2962 4.38525ZM85.2025 17.9758C86.1579 17.9778 87.0926 17.6974 87.8891 17.1698C88.6856 16.6421 89.3084 15.8908 89.6791 15.0103C90.0499 14.1297 90.1521 13.1592 89.9729 12.2207C89.7937 11.2823 89.3411 10.4177 88.672 9.73573C88.0029 9.05373 87.1471 8.58474 86.2122 8.3877C85.2774 8.19065 84.3051 8.27434 83.4176 8.62825C82.5302 8.98216 81.7671 9.5905 81.2244 10.3768C80.6817 11.1631 80.3835 12.0923 80.3673 13.0476C80.3587 14.3407 80.8619 15.5847 81.7672 16.5082C82.6724 17.4316 83.9062 17.9594 85.1992 17.9765"
            fill="#1D1D1B"
          />
          <path
            d="M101.155 7.03338C101.65 6.32431 102.286 5.72569 103.024 5.27544C103.762 4.82519 104.586 4.53311 105.443 4.4177C106.3 4.30229 107.171 4.36607 108.002 4.60499C108.833 4.84391 109.605 5.25278 110.27 5.80569C110.979 6.42722 111.55 7.19102 111.944 8.04743C112.339 8.90385 112.548 9.8337 112.56 10.7766C112.649 14.3065 112.59 17.8403 112.611 21.3735C112.611 21.7696 112.494 21.8814 112.103 21.8704C111.173 21.8445 110.241 21.829 109.312 21.8742C108.768 21.9007 108.635 21.7308 108.639 21.2016C108.665 18.2674 108.646 15.3326 108.655 12.3984C108.684 11.6631 108.522 10.9329 108.183 10.2797C107.849 9.63307 107.323 9.10581 106.677 8.77029C106.031 8.43477 105.297 8.30745 104.576 8.40581C103.817 8.52341 103.115 8.8805 102.573 9.42498C102.032 9.96946 101.678 10.6728 101.564 11.4324C101.489 12.134 101.457 12.8397 101.47 13.5453C101.46 16.0996 101.449 18.6538 101.48 21.2074C101.486 21.7528 101.323 21.8923 100.797 21.8691C99.8683 21.8277 98.9353 21.8413 98.0055 21.8652C97.6178 21.8749 97.4885 21.7573 97.4885 21.3612C97.5002 16.0356 97.5002 10.7102 97.4885 5.38504C97.4885 4.99735 97.5951 4.85972 97.9951 4.86812C98.87 4.89332 99.7475 4.90043 100.622 4.86812C101.078 4.85003 101.179 5.02837 101.157 5.43415C101.129 5.96464 101.15 6.49837 101.15 7.0308"
            fill="#1D1D1B"
          />
          <path
            d="M62.6699 16.8253C64.1438 17.7532 65.8305 18.2886 67.5697 18.3806C68.1417 18.4431 68.7204 18.3737 69.2613 18.1777C70.1925 17.8281 70.7559 17.1213 70.6829 16.4008C70.6137 15.7223 69.9366 15.1731 68.9622 15.0238C67.7991 14.8461 66.636 14.7008 65.4729 14.5069C61.9617 13.9254 60.1047 10.7289 61.4791 7.6131C61.7948 6.91232 62.267 6.29323 62.8593 5.8034C63.4516 5.31357 64.1483 4.96602 64.8959 4.78747C66.3478 4.38189 67.866 4.27042 69.3615 4.45961C70.857 4.64879 72.2997 5.13482 73.6048 5.88916C74.0028 6.10433 74.0403 6.31756 73.7986 6.64968C73.7867 6.67424 73.7767 6.69974 73.7689 6.72593C73.3929 7.47805 73.1964 8.47765 72.5897 8.9138C71.9584 9.36611 71.2463 8.38137 70.4735 8.23405C69.4898 8.00615 68.4865 7.87308 67.4773 7.83667C67.0133 7.84204 66.5539 7.92955 66.1204 8.09513C65.4574 8.33873 64.9127 8.74128 64.9741 9.49857C65.0387 10.2785 65.6293 10.6468 66.3679 10.7676C67.4198 10.9389 68.473 11.0978 69.5269 11.2581C70.7525 11.3978 71.9203 11.8553 72.9147 12.5853C73.564 13.063 74.0829 13.6962 74.4239 14.4267C74.7649 15.1572 74.917 15.9616 74.8662 16.7661C74.8155 17.5706 74.5635 18.3496 74.1335 19.0314C73.7034 19.7133 73.1091 20.2762 72.4049 20.6686C69.8655 22.1399 67.1336 22.0818 64.368 21.4725C63.3849 21.2432 62.4355 20.8877 61.5437 20.4147C61.156 20.2209 61.0203 20.0529 61.2632 19.6148C61.7627 18.7153 62.1931 17.7784 62.6673 16.8266"
            fill="#1D1D1B"
          />
          <path
            d="M116.395 21.86C116.792 21.0529 117.112 20.3984 117.435 19.7457C120.476 13.6142 123.513 7.48066 126.546 1.34522C126.624 1.10639 126.784 0.902779 126.998 0.770097C127.211 0.637415 127.465 0.584131 127.714 0.619588C128.91 0.676449 130.112 0.636388 131.3 0.636388C131.405 0.995649 131.189 1.20888 131.074 1.4402C127.82 8.01159 124.568 14.5832 121.317 21.155C121.238 21.3934 121.077 21.5964 120.863 21.7282C120.649 21.8601 120.396 21.9124 120.147 21.8761C118.951 21.8192 117.749 21.8593 116.4 21.8593"
            fill="#1D1D1B"
          />
        </g>
      </g>
      <defs>
        <clipPath id="clip0_190_3664">
          <rect width="131.329" height="21.8788" fill="white" />
        </clipPath>
      </defs>
    </svg>