<svg
      xmlns="http://www.w3.org/2000/svg"
      width="154"
      height="22"
      viewBox="0 0 154 22"
      fill="none"
    >
      <g clipPath="url(#clip0_190_4564)">
        <mask
          id="mask0_190_4564"
          style="mask-type:luminance"
          maskUnits="userSpaceOnUse"
          x="0"
          y="0"
          width="154"
          height="22"
        >
          <path d="M153.359 0H0V21.2417H153.359V0Z" fill="white" />
        </mask>
        <g mask="url(#mask0_190_4564)">
          <path
            d="M114.169 8.67079C114.173 7.88312 114.195 7.09482 114.169 6.3078C114.156 5.90266 114.298 5.73725 114.697 5.79088C114.747 5.79642 114.799 5.79642 114.85 5.79088C115.453 5.73466 116.256 6.06485 116.606 5.64097C116.899 5.28559 116.681 4.51537 116.705 3.92995C116.742 3.06734 116.34 1.91525 116.858 1.42805C117.31 1.00159 118.459 1.30269 119.3 1.29882C120.858 1.29171 120.859 1.29882 120.859 2.83537C120.859 3.65275 120.868 4.47014 120.854 5.29075C120.848 5.61965 120.898 5.81091 121.302 5.80251C122.349 5.77968 123.396 5.77968 124.444 5.80251C124.843 5.81155 124.901 5.63257 124.896 5.29657C124.883 4.14706 124.91 2.99691 124.884 1.84805C124.874 1.41254 125.013 1.27749 125.447 1.28977C126.468 1.31885 127.491 1.32531 128.511 1.28977C128.982 1.27232 129.053 1.46229 129.045 1.86549C129.024 2.98915 129.055 4.11346 129.03 5.23712C129.02 5.66617 129.145 5.82706 129.589 5.80445C130.252 5.77085 130.918 5.80832 131.582 5.78959C131.94 5.77925 132.116 5.89814 132.064 6.27226C132.062 6.29765 132.062 6.32312 132.064 6.34851C132.05 7.05928 132.3 7.97876 131.95 8.43429C131.573 8.92472 130.608 8.60165 129.907 8.58032C129.234 8.55965 128.999 8.71472 129.019 9.44423C129.075 11.4867 129.037 13.5312 129.039 15.5749C129.039 17.4656 129.42 17.8572 131.3 17.6627C131.982 17.5916 132.128 17.7635 132.075 18.3941C132.033 19.0316 132.032 19.671 132.071 20.3087C132.086 20.686 131.98 20.8824 131.576 20.8973C130.328 21.0054 129.071 20.9796 127.828 20.8204C125.815 20.4618 124.899 19.3814 124.892 17.3506C124.884 14.6425 124.878 11.9345 124.901 9.22712C124.905 8.74186 124.799 8.56482 124.282 8.58808C123.313 8.63137 122.344 8.61522 121.37 8.5926C120.982 8.58356 120.841 8.67596 120.845 9.09531C120.866 11.4964 120.845 13.8975 120.862 16.2986C120.869 17.2679 121.244 17.6213 122.213 17.6885C122.315 17.6855 122.417 17.6891 122.519 17.6995C122.958 17.7893 123.548 17.3887 123.801 17.7706C124.014 18.0936 123.865 18.659 123.865 19.1172C123.865 20.9303 123.865 20.94 122.038 20.9451C121.298 20.9699 120.557 20.9392 119.821 20.8534C117.615 20.5264 116.715 19.4667 116.703 17.2349C116.69 14.6038 116.68 11.972 116.716 9.34149C116.724 8.73023 116.55 8.52605 115.957 8.59389C115.353 8.57929 114.749 8.60324 114.148 8.66562L114.169 8.67079Z"
            fill="#1D1D1B"
          />
          <path
            d="M87.5354 7.52518C90.0283 4.6582 94.4318 4.79712 96.6022 7.32035C97.4274 8.27018 97.9903 9.41904 98.2351 10.6532C98.7972 13.4401 98.7022 16.1578 97.081 18.6145C96.173 19.8851 94.8241 20.7717 93.2975 21.1012C91.771 21.4307 90.1764 21.1795 88.8251 20.3966C88.2838 20.0437 87.8123 19.5937 87.4346 19.0694C87.3584 19.1172 87.3215 19.1282 87.3183 19.1443C87.2324 19.6813 87.5768 20.4082 87.1438 20.7151C86.782 20.9697 86.11 20.8082 85.5737 20.7797C84.8455 20.741 83.8717 21.1203 83.4588 20.6169C83.1047 20.1846 83.3587 19.2484 83.3587 18.5344C83.3587 12.635 83.3645 6.73558 83.3444 0.835552C83.3444 0.261121 83.4446 0.0188132 84.0862 0.0601671C85.0298 0.117088 85.976 0.117088 86.9196 0.0601671C87.4643 0.0297978 87.547 0.242382 87.5425 0.713429C87.5238 2.93232 87.5341 5.15121 87.5341 7.5213M87.3887 13.2075C87.3447 14.1799 87.5267 15.1493 87.9205 16.0396C88.1415 16.6307 88.5391 17.1395 89.0593 17.4968C89.5795 17.8541 90.1971 18.0427 90.8282 18.0368C91.46 18.0766 92.088 17.9141 92.6212 17.5729C93.1543 17.2316 93.5649 16.7294 93.7934 16.1391C94.2012 15.2401 94.4117 14.2642 94.4108 13.277C94.4099 12.2899 94.1976 11.3143 93.7882 10.4161C93.5599 9.82507 93.1492 9.32213 92.6159 8.98011C92.0825 8.6381 91.4541 8.47477 90.8217 8.5138C90.1767 8.51229 89.5473 8.71232 89.0215 9.08592C88.4957 9.45952 88.0997 9.98804 87.8889 10.5976C87.5445 11.4239 87.3744 12.3124 87.3894 13.2075"
            fill="#1D1D1B"
          />
          <path
            d="M35.1884 7.93567C36.8587 5.62631 38.9458 5.06028 41.4044 5.55265C42.3003 5.67663 43.1305 6.09165 43.7673 6.73381C44.4041 7.37597 44.8121 8.20966 44.9286 9.1065C45.0641 9.78329 45.1334 10.4717 45.1353 11.1619C45.1302 14.151 45.1198 17.1408 45.147 20.1292C45.1521 20.6668 45.0177 20.8264 44.4743 20.7987C43.5316 20.7508 42.583 20.7541 41.639 20.7987C41.1156 20.8232 40.998 20.6403 40.9999 20.1486C41.0122 17.3643 40.9928 14.5794 40.9812 11.7951C40.9821 11.5651 40.9679 11.3352 40.9386 11.107C40.7156 9.5097 39.9629 8.73625 38.5814 8.67099C36.8368 8.58958 35.8391 9.27127 35.4404 10.8285C35.2661 11.5489 35.1825 12.2882 35.1917 13.0293C35.1858 15.4052 35.1755 17.7811 35.1975 20.157C35.202 20.6475 35.0863 20.8239 34.5668 20.7987C33.648 20.7491 32.7272 20.7491 31.8084 20.7987C31.1997 20.8348 31.0453 20.6436 31.0479 20.0427C31.0699 14.0644 31.0615 8.08881 31.0615 2.10736C31.0615 1.62145 31.0925 1.13425 31.053 0.651576C31.0136 0.168899 31.2055 0.0487143 31.665 0.0648682C32.6607 0.0984682 33.659 0.100407 34.6541 0.0648682C35.1154 0.0480682 35.1975 0.221237 35.1943 0.63413C35.1762 2.72896 35.1859 4.82444 35.1859 6.91862V7.93567"
            fill="#1D1D1B"
          />
          <path
            d="M81.4543 14.1508C81.5105 15.6744 81.3554 17.5392 81.568 19.4001C81.619 19.846 82.0345 20.434 81.7476 20.666C81.4478 20.9089 80.8243 20.759 80.3416 20.7661C79.729 20.7752 79.1139 20.7267 78.5039 20.7829C77.9166 20.8372 77.6639 20.6065 77.6103 20.0482C77.5702 19.6257 77.525 19.3821 76.9939 19.771C75.9948 20.516 74.8221 20.9938 73.5869 21.1593C72.3517 21.3249 71.0946 21.1726 69.9346 20.717C68.2275 20.1277 67.339 18.6248 67.3403 16.6863C67.3403 14.7188 68.1584 13.4555 69.9249 12.7564C71.4071 12.2809 72.9407 11.9844 74.4933 11.8731C75.1559 11.8284 75.8071 11.6786 76.4227 11.4292C76.6732 11.2952 76.886 11.1002 77.0413 10.8623C77.1967 10.6244 77.2896 10.3511 77.3115 10.0678C77.3334 9.78455 77.2835 9.5003 77.1666 9.24133C77.0496 8.98237 76.8694 8.75703 76.6424 8.58612C76.0282 8.27555 75.3456 8.12493 74.6578 8.1482C73.9699 8.17146 73.2991 8.36787 72.7073 8.71923C72.4263 8.90521 72.226 9.19047 72.1464 9.51787C72.0353 10.3669 71.521 10.4541 70.8108 10.4076C69.9973 10.3546 69.1767 10.376 68.36 10.4031C67.9044 10.418 67.7991 10.2635 67.8579 9.82157C68.0192 8.82992 68.4801 7.91136 69.1785 7.18914C69.8769 6.46693 70.7795 5.97563 71.7652 5.78116C73.8806 5.23982 76.0986 5.24293 78.2125 5.79021C80.4566 6.36529 81.4504 7.69055 81.4523 9.98375C81.4523 11.2605 81.4523 12.5373 81.4523 14.1521M77.3066 13.5395C76.3887 13.9217 75.4138 14.1494 74.4215 14.2135C73.7099 14.2813 73.0188 14.4895 72.3881 14.826C72.143 14.9837 71.9352 15.1928 71.7789 15.4388C71.6226 15.6848 71.5217 15.9618 71.4831 16.2507C71.4445 16.5395 71.4692 16.8333 71.5554 17.1117C71.6416 17.3901 71.7872 17.6464 71.9823 17.8629C73.5699 19.2483 76.7328 18.2157 77.1922 16.17C77.3237 15.2997 77.3621 14.4179 77.3066 13.5395Z"
            fill="#1D1D1B"
          />
          <path
            d="M153.064 16.141C152.216 18.5906 150.802 20.3475 148.256 20.9226C145.732 21.4951 143.284 21.3058 141.188 19.6548C138.603 17.6214 138.044 14.8029 138.503 11.722C138.697 10.4863 139.195 9.31814 139.952 8.32211C140.709 7.32608 141.701 6.53327 142.839 6.01467C143.977 5.49608 145.226 5.26788 146.475 5.35051C147.723 5.43314 148.931 5.82402 149.991 6.48816C152.006 7.78047 152.932 9.76739 153.231 12.0625C153.522 14.2937 153.489 14.2976 151.247 14.2976C148.563 14.2976 145.879 14.3208 143.196 14.2821C142.518 14.2717 142.457 14.4882 142.575 15.0704C142.865 16.5061 143.494 17.6453 145.051 17.9302C146.737 18.2385 148.273 18.0039 149.288 16.4027C149.324 16.323 149.383 16.2556 149.457 16.2086C149.531 16.1615 149.617 16.137 149.704 16.1378C150.798 16.1449 151.891 16.141 153.064 16.141M145.77 11.6884C146.714 11.6884 147.66 11.6671 148.603 11.6974C149.062 11.7123 149.173 11.574 149.076 11.1301C148.975 10.3722 148.591 9.68058 148.001 9.19445C147.411 8.70832 146.658 8.46376 145.895 8.50997C145.107 8.47083 144.333 8.72188 143.718 9.21559C143.103 9.7093 142.69 10.4114 142.558 11.1889C142.459 11.6522 142.635 11.7007 143.013 11.6936C143.931 11.6768 144.851 11.6884 145.77 11.6884Z"
            fill="#1D1D1B"
          />
          <path
            d="M114.152 8.66036C113.925 8.95178 114.256 9.09587 114.342 9.28584C114.94 10.5058 115.255 11.8447 115.264 13.2032C115.273 14.5616 114.977 15.9047 114.396 17.1327C113.031 20.0585 110.487 21.1802 107.401 21.1932C102.869 21.2113 99.8594 18.2855 99.6843 13.7417C99.5873 11.2379 100.224 9.00606 102.109 7.21944C104.758 4.70978 111.148 4.47393 113.813 8.39092C113.891 8.50529 113.894 8.77861 114.168 8.67135L114.152 8.66036ZM111.062 13.3366C111.075 12.5448 110.967 11.7556 110.743 10.9962C110.568 10.2815 110.157 9.64692 109.575 9.19589C108.994 8.74486 108.277 8.50395 107.541 8.51239C106.82 8.44557 106.097 8.62969 105.496 9.03369C104.894 9.43769 104.451 10.0368 104.24 10.73C103.631 12.3743 103.626 14.1813 104.226 15.8288C104.791 17.4261 105.944 18.1078 107.674 18.0373C108.396 18.0269 109.093 17.7734 109.653 17.3177C110.212 16.8621 110.602 16.231 110.759 15.5264C110.962 14.8144 111.064 14.0771 111.062 13.3366Z"
            fill="#1D1D1B"
          />
          <path
            d="M55.8341 7.66292C56.4374 6.914 57.2097 6.31883 58.0877 5.92626C58.9656 5.53369 59.9241 5.35491 60.8845 5.40461C64.0325 5.49636 65.7894 7.03938 65.9245 10.181C66.0679 13.5461 65.9768 16.921 66.0046 20.2913C66.0085 20.7437 65.7713 20.7747 65.4289 20.7714C64.4596 20.7624 63.4865 20.7378 62.5212 20.7805C61.9636 20.8044 61.8382 20.5944 61.8434 20.0749C61.8666 17.5471 61.8543 15.0187 61.8537 12.4903C61.8537 12.1582 61.8582 11.8261 61.8401 11.4946C61.7432 9.68538 60.9549 8.742 59.4746 8.65541C57.5878 8.54492 56.4835 9.38944 56.1889 11.2116C56.0927 11.816 56.0428 12.4269 56.0396 13.0389C56.0228 15.4137 56.0228 17.7886 56.0396 20.1634C56.0435 20.6189 55.9259 20.7947 55.4426 20.7779C54.4475 20.7437 53.4505 20.7533 52.4547 20.774C52.0599 20.7824 51.9159 20.6532 51.9165 20.2513C51.926 15.6033 51.926 10.9555 51.9165 6.30793C51.9165 5.89569 52.0774 5.78455 52.4631 5.79101C53.4072 5.8104 54.3532 5.81492 55.2978 5.79101C55.7501 5.77873 55.8716 5.96676 55.8432 6.38224C55.8147 6.79772 55.8367 7.23516 55.8367 7.66227"
            fill="#1D1D1B"
          />
          <path
            d="M18.04 15.8824C18.2953 15.8972 18.5513 15.8955 18.8064 15.8772C19.5656 15.777 20.1129 15.8862 20.2066 16.8322C20.255 17.06 20.3571 17.273 20.5045 17.4534C20.6518 17.6338 20.8401 17.7764 21.0537 17.8693C21.6167 18.2022 22.2527 18.392 22.9061 18.4221C23.5594 18.4522 24.2102 18.3216 24.8014 18.0418C25.09 17.9307 25.3394 17.7369 25.5181 17.4845C25.6969 17.2322 25.7971 16.9326 25.8062 16.6235C25.8171 16.3265 25.7313 16.034 25.5616 15.79C25.3919 15.5459 25.1476 15.3636 24.8654 15.2704C23.6644 14.7676 22.4085 14.4078 21.1235 14.1985C20.3473 14.0414 19.5867 13.815 18.851 13.522C17.4986 12.9449 16.5003 12.0772 16.4156 10.485C16.3239 8.74882 16.8414 7.26783 18.4187 6.38777C20.6343 5.15103 23.0342 5.21629 25.4379 5.64857C26.5341 5.82086 27.5433 6.34872 28.31 7.15088C28.969 7.87257 29.3895 8.7798 29.5144 9.74906C29.57 10.1044 29.4673 10.193 29.1267 10.1878C28.1045 10.1723 27.0817 10.1704 26.0595 10.1878C25.7409 10.1936 25.6181 10.0857 25.5555 9.77879C25.475 9.38678 25.2732 9.03005 24.9786 8.75923C24.684 8.4884 24.3116 8.31724 23.9142 8.27002C23.1905 8.10469 22.4383 8.11066 21.7173 8.28746C21.1144 8.44254 20.6188 8.71651 20.5581 9.42663C20.5405 9.72402 20.6235 10.0187 20.7939 10.2631C20.9642 10.5075 21.2119 10.6874 21.497 10.7739C22.3976 11.1309 23.3338 11.3908 24.2896 11.5492C25.2407 11.7349 26.1779 11.9857 27.0946 12.3001C28.5956 12.8706 29.7735 13.7358 29.9286 15.4695C30.0718 16.3739 29.9397 17.3005 29.5494 18.1289C29.1591 18.9573 28.5287 19.6492 27.7401 20.1147C26.5327 20.8008 25.1692 21.165 23.7805 21.1724C21.9629 21.3496 20.133 20.9951 18.513 20.1521C17.8385 19.7793 17.2656 19.2469 16.8444 18.6015C16.4232 17.956 16.1666 17.2172 16.0971 16.4497C16.0428 16.0336 16.0971 15.832 16.583 15.874C17.0689 15.916 17.5522 15.883 18.0394 15.883"
            fill="#1D1D1B"
          />
          <path
            d="M6.62014 14.6735C6.62014 16.5118 6.60399 18.3508 6.63113 20.1891C6.63823 20.6575 6.51417 20.812 6.03537 20.7945C5.06614 20.7583 4.09303 20.7473 3.12768 20.7945C2.56165 20.8229 2.46473 20.6168 2.46796 20.1025C2.48928 16.528 2.46408 12.9528 2.49445 9.37633C2.49962 8.767 2.39236 8.54989 1.72488 8.56863C0.0209718 8.62356 0.0196795 8.58673 0.0196795 6.90608C0.0316673 6.72767 0.0301553 6.5486 0.0151564 6.37042C-0.0591513 5.8858 0.150203 5.75657 0.612849 5.78113C1.19439 5.81214 1.94069 5.98079 2.32774 5.69713C2.74839 5.38956 2.43242 4.59866 2.49574 4.02423C2.75033 1.69808 4.30497 0.341156 7.01365 0.092387C7.80487 0.0826312 8.59599 0.118444 9.38309 0.199649C9.68097 0.206756 9.70294 0.363125 9.701 0.591218C9.69519 1.35691 9.68097 2.12389 9.701 2.88894C9.71263 3.27663 9.51103 3.28633 9.22414 3.26888C8.79368 3.22617 8.36065 3.21537 7.9286 3.23657C7.67431 3.28655 7.4342 3.39208 7.22544 3.54562C7.01667 3.69917 6.84439 3.89693 6.72093 4.12478C6.59747 4.35264 6.52586 4.60495 6.51123 4.86369C6.4966 5.12243 6.5393 5.38121 6.63629 5.62153C6.74356 5.82829 6.93288 5.78629 7.10346 5.78694C7.79291 5.79146 8.483 5.80374 9.17116 5.78371C9.54593 5.77273 9.70036 5.86642 9.72103 6.28836C9.83217 8.59254 9.84445 8.62033 7.52928 8.57639C6.82497 8.56282 6.56586 8.68817 6.59753 9.46743C6.66731 11.2011 6.61949 12.9392 6.61885 14.6754"
            fill="#1D1D1B"
          />
          <path
            d="M133.158 10.327C133.158 7.13564 133.169 3.94494 133.147 0.754229C133.143 0.237306 133.254 0.0363517 133.812 0.062844C134.806 0.109367 135.804 0.0970902 136.799 0.0667209C137.207 0.054444 137.308 0.179152 137.308 0.577829C137.296 7.13844 137.296 13.6991 137.308 20.2597C137.308 20.7081 137.165 20.8083 136.746 20.7947C135.803 20.765 134.856 20.7514 133.914 20.7986C133.328 20.8276 133.135 20.6764 133.138 20.0536C133.172 16.8112 133.154 13.5694 133.154 10.327"
            fill="#1D1D1B"
          />
          <path
            d="M14.9425 13.2988C14.9425 15.5965 14.9302 17.8943 14.9522 20.1913C14.9567 20.652 14.8501 20.8175 14.361 20.7981C13.3665 20.7587 12.3695 20.7664 11.3744 20.7948C10.9292 20.8078 10.7574 20.716 10.7593 20.2133C10.7787 15.5937 10.7798 10.9735 10.7625 6.35267C10.7625 5.9275 10.8685 5.77113 11.3143 5.78017C12.3346 5.80925 13.3581 5.81959 14.3778 5.78017C14.8947 5.7595 14.9548 5.97402 14.9515 6.40823C14.9341 8.70596 14.9438 11.0037 14.9431 13.3008"
            fill="#1D1D1B"
          />
          <path
            d="M50.6963 13.2716C50.6963 15.546 50.6795 17.8205 50.7085 20.0943C50.7156 20.6345 50.556 20.8051 50.0223 20.7818C49.0531 20.7437 48.08 20.7534 47.1095 20.776C46.6785 20.7863 46.5363 20.6468 46.5376 20.2054C46.551 15.5803 46.551 10.9549 46.5376 6.32929C46.5376 5.92351 46.6759 5.78976 47.0687 5.79557C48.0658 5.81043 49.0634 5.82336 50.0585 5.78459C50.5799 5.76456 50.7047 5.96099 50.7001 6.44819C50.6795 8.72265 50.6911 10.9971 50.6911 13.2716H50.6963Z"
            fill="#1D1D1B"
          />
          <path
            d="M12.9963 0.0769564C13.5481 0.156433 14.4507 -0.23449 14.8346 0.237849C15.1641 0.644279 14.9386 1.50819 14.9418 2.16985C14.9476 3.49317 14.9418 3.49317 13.645 3.49317C12.8528 3.49317 12.0613 3.48477 11.2691 3.49705C10.946 3.50222 10.7476 3.4628 10.7625 3.04991C10.7935 2.20991 10.7903 1.36345 10.7625 0.52151C10.7502 0.122187 10.926 0.0569256 11.2665 0.0692025C11.8015 0.0911718 12.3391 0.0750179 12.9956 0.0750179"
            fill="#1D1D1B"
          />
          <path
            d="M48.5504 3.49468C47.9424 3.39453 47.0397 3.80936 46.6513 3.32022C46.3244 2.90862 46.5531 2.04924 46.5499 1.38822C46.5473 0.0913901 46.5473 0.09139 47.8293 0.0920362C48.5943 0.0920362 49.36 0.107544 50.1244 0.0849285C50.5347 0.0726516 50.7292 0.176036 50.706 0.635452C50.6724 1.42441 50.6814 2.21594 50.7008 3.00619C50.7092 3.3661 50.5916 3.51407 50.2213 3.49985C49.6863 3.47917 49.1507 3.49468 48.5491 3.49468"
            fill="#1D1D1B"
          />
        </g>
      </g>
      <defs>
        <clipPath id="clip0_190_4564">
          <rect width="153.359" height="21.2417" fill="white" />
        </clipPath>
      </defs>
    </svg>