 <svg
      xmlns="http://www.w3.org/2000/svg"
      width="134"
      height="25"
      viewBox="0 0 134 25"
      fill="none"
    >
      <g clipPath="url(#clip0_190_2653)">
        <mask
          id="mask0_190_2653"
          style="mask-type:luminance"
          maskUnits="userSpaceOnUse"
          x="0"
          y="0"
          width="134"
          height="25"
        >
          <path d="M133.306 0H0V24.5125H133.306V0Z" fill="white" />
        </mask>
        <g mask="url(#mask0_190_2653)">
          <path
            d="M38.2932 8.96269C36.7864 13.2919 35.2143 17.5947 33.8108 21.9536C33.345 23.4016 32.7053 24.0148 31.1306 24.0097C29.6134 24.0045 28.8419 23.547 28.3573 22.0609C26.9151 17.6509 25.3249 13.29 23.546 8.96915C23.546 12.9206 23.546 16.872 23.546 20.8235C23.5422 24.1001 23.537 24.1079 20.3082 23.938C19.7258 23.8726 19.1472 23.7775 18.5745 23.653C18.5745 19.453 18.5745 15.3234 18.5745 11.1945C18.5745 8.25838 18.6236 5.32161 18.5571 2.38678C18.5267 1.04666 18.9816 0.562042 20.3598 0.502595C25.7397 0.269334 25.7352 0.225396 27.4966 5.39204C28.6597 8.80632 29.8279 12.2191 31.0014 15.6303C31.024 15.695 31.0918 15.7473 31.2921 15.9961C32.6788 11.7017 34.152 7.57087 35.3209 3.34955C35.925 1.16749 36.8846 0.357211 39.214 0.46318C43.6408 0.665426 43.6479 0.516165 43.6479 4.9294C43.6479 10.3493 43.593 15.7712 43.6782 21.1899C43.7073 23.0469 43.4844 24.0329 41.1796 24.0478C38.7804 24.0607 38.5064 23.054 38.5665 21.0755C38.688 17.028 38.6027 12.974 38.6027 8.92263L38.2932 8.96269Z"
            fill="#1D1D1B"
          />
          <path
            d="M133.305 12.2399C133.321 13.8437 133.02 15.4348 132.42 16.9221C131.82 18.4094 130.932 19.7635 129.807 20.9068C128.682 22.0501 127.342 22.96 125.865 23.5844C124.388 24.2089 122.802 24.5355 121.198 24.5456C119.594 24.5557 118.004 24.249 116.519 23.6432C115.034 23.0374 113.683 22.1443 112.544 21.0153C111.405 19.8862 110.5 18.5434 109.881 17.0638C109.262 15.5842 108.941 13.9969 108.937 12.393C108.909 10.7819 109.201 9.18123 109.796 7.68372C110.391 6.18621 111.277 4.82159 112.403 3.66885C113.529 2.51611 114.873 1.59815 116.356 0.968097C117.839 0.338044 119.432 0.00841378 121.044 -0.0017125C122.655 -0.0118388 124.252 0.29774 125.743 0.909104C127.234 1.52047 128.589 2.42147 129.729 3.55997C130.87 4.69847 131.773 6.05184 132.387 7.54175C133.001 9.03166 133.313 10.6285 133.305 12.2399ZM121.052 19.493C122.478 19.4887 123.871 19.0629 125.056 18.2693C126.241 17.4756 127.165 16.3494 127.712 15.0323C128.258 13.7151 128.403 12.2657 128.129 10.8663C127.854 9.46693 127.172 8.17991 126.168 7.16705C125.164 6.15418 123.883 5.46066 122.486 5.17364C121.089 4.88662 119.639 5.01892 118.317 5.55389C116.995 6.08887 115.861 7.00266 115.056 8.18041C114.252 9.35817 113.814 10.7473 113.797 12.1733C113.78 13.134 113.956 14.0883 114.314 14.9799C114.672 15.8715 115.205 16.6824 115.882 17.3646C116.558 18.0469 117.365 18.5867 118.253 18.9523C119.142 19.3178 120.095 19.5017 121.055 19.493"
            fill="#1D1D1B"
          />
          <path
            d="M103.955 12.864C108.381 15.4576 106.034 20.0796 107.853 23.8273C106.389 23.915 104.92 23.8913 103.46 23.7562C103.148 23.6217 102.872 23.4165 102.653 23.1569C102.434 22.8973 102.278 22.5904 102.198 22.2604C101.869 20.7264 101.831 19.1336 101.594 17.577C101.331 15.8544 100.327 14.9149 98.5178 14.933C96.8003 14.9498 95.0829 14.9368 93.0662 14.9368V23.7194H87.9875C87.8872 23.1224 87.8195 22.5203 87.7846 21.916C87.771 15.519 87.8408 9.12211 87.7355 2.73165C87.7044 0.892694 88.3409 0.405494 90.0719 0.462356C93.4507 0.572848 96.8391 0.448141 100.224 0.512756C103.44 0.572848 105.961 2.27159 106.776 4.77737C107.82 7.99328 107.008 10.4732 103.955 12.8653M93.1922 10.8977C95.1675 10.8977 97.0265 10.9029 98.8861 10.8977C100.825 10.8906 101.766 9.8794 101.849 7.9726C101.933 6.0658 101.009 4.90337 99.1472 4.76445C97.2184 4.621 95.2703 4.73214 93.1922 4.73214V10.8977Z"
            fill="#1D1D1B"
          />
          <path
            d="M73.2277 19.3773H85.283C85.3586 20.2464 85.389 20.9643 85.4898 21.6731C85.7424 23.4474 85.0136 24.0425 83.2282 23.9992C78.7142 23.8946 74.195 23.9249 69.6797 23.9818C68.2543 23.9992 67.6488 23.5444 67.6598 22.0485C67.7089 15.5008 67.7089 8.95183 67.6598 2.40156C67.6488 0.878571 68.306 0.484417 69.7075 0.50251C74.2228 0.559371 78.742 0.598787 83.256 0.487002C85.1615 0.439833 85.2274 1.40777 85.2591 2.86549C85.294 4.435 84.989 5.21491 83.1733 5.14189C79.8857 5.01266 76.5897 5.10442 73.1747 5.10442V9.80519H83.8259C84.8824 13.6685 84.6175 14.0414 81.0623 14.044C78.5094 14.044 75.9577 14.044 73.2277 14.044V19.3773Z"
            fill="#1D1D1B"
          />
          <path
            d="M52.2886 15.5529C52.2886 18.1537 52.2168 20.2563 52.3086 22.3511C52.3965 24.3309 51.0395 24.0957 49.8881 23.9904C48.7367 23.8851 46.961 24.8039 46.9688 22.4086C46.9895 15.7183 46.9332 9.02676 47.0282 2.33778C47.0366 1.75624 47.929 0.708821 48.4284 0.698483C52.0313 0.562356 55.6389 0.62189 59.2354 0.876821C63.3384 1.23738 65.6717 4.26654 65.5573 8.51565C65.452 12.4372 62.9785 15.1885 59.0176 15.5219C56.8666 15.7028 54.6884 15.5542 52.2886 15.5542M52.3571 11.267C54.4067 11.267 56.2676 11.4098 58.0943 11.223C59.6379 11.0647 60.3319 9.92362 60.3629 8.36187C60.3933 6.88347 60.034 5.48454 58.4774 5.20347C56.4472 4.93755 54.4036 4.78654 52.3564 4.75116L52.3571 11.267Z"
            fill="#1D1D1B"
          />
          <path
            d="M0.410268 19.3212H5.09424V5.26219L0.441929 5.02376C0.311522 4.80126 0.211759 4.56218 0.145344 4.31299C-0.149302 0.529756 -0.146071 0.527817 3.55381 0.525879C7.53153 0.525879 11.5093 0.525879 15.6679 0.525879V5.02505L10.803 5.24086V19.2366L15.4624 19.4575C15.5965 19.6547 15.7 19.871 15.7693 20.0992C16.17 23.967 16.1667 23.9683 12.2653 23.9683H3.68498C-0.336686 23.9683 -0.403886 23.885 0.407683 19.3199"
            fill="#1D1D1B"
          />
        </g>
      </g>
      <defs>
        <clipPath id="clip0_190_2653">
          <rect width="133.306" height="24.5125" fill="white" />
        </clipPath>
      </defs>
    </svg>