 <svg
      xmlns="http://www.w3.org/2000/svg"
      width="180"
      height="33"
      viewBox="0 0 180 33"
      fill="none"
    >
      <g clipPath="url(#clip0_190_4533)">
        <mask
          id="mask0_190_4533"
          style="mask-type:luminance"
          maskUnits="userSpaceOnUse"
          x="0"
          y="0"
          width="180"
          height="33"
        >
          <path d="M180 0H0V33H180V0Z" fill="white" />
        </mask>
        <g mask="url(#mask0_190_4533)">
          <path
            d="M76.9802 6.79085C79.5119 6.79085 81.9872 6.76554 84.4618 6.79929C86.4055 6.77109 88.3493 6.8469 90.2847 7.02639C92.6087 7.30763 94.134 8.78414 94.9241 10.8998C95.3297 11.8982 95.4557 12.9856 95.289 14.0483C95.1222 15.1111 94.6689 16.1103 93.9762 16.9415C93.4105 17.5078 92.7831 18.011 92.1055 18.4419C94.5151 19.4474 94.7093 21.5489 94.6879 23.7531C94.6807 24.464 94.6722 25.1769 94.7014 25.887C94.6585 26.3196 94.709 26.7562 94.8495 27.1682C94.9899 27.5802 95.2173 27.9582 95.5165 28.2776C95.6265 28.3753 95.6129 28.6073 95.695 28.9272C94.0212 28.9272 92.4367 28.9483 90.8543 28.8991C90.668 28.8935 90.3632 28.5223 90.3354 28.2945C90.1705 26.948 89.9985 25.596 89.9642 24.2425C89.8786 20.8676 89.274 20.2468 85.8544 20.2383C84.4476 20.2383 83.0408 20.2383 81.5333 20.2383V28.8682H76.9831L76.9802 6.79085ZM81.5718 10.7395V16.4704C83.8337 16.4704 86.0264 16.5457 88.2098 16.4451C89.7665 16.3748 90.5588 15.3504 90.5738 13.7572C90.5895 11.9994 89.8414 10.8611 88.3019 10.7718C86.0892 10.6438 83.863 10.7395 81.5711 10.7395"
            fill="#1D1D1B"
          />
          <path
            d="M117.335 28.9301C115.776 23.4593 114.244 18.0834 112.67 12.5605C114.176 12.5605 115.575 12.5338 116.97 12.5922C117.158 12.6006 117.429 13.0182 117.49 13.2847C118.251 16.5977 118.979 19.9185 119.719 23.2357C119.755 23.4322 119.868 23.6068 120.034 23.7222C120.494 21.4723 120.955 19.2224 121.415 16.9725C121.675 15.7013 121.9 14.4216 122.216 13.1638C122.279 13.0171 122.378 12.8876 122.503 12.7866C122.628 12.6856 122.776 12.6159 122.934 12.5837C123.966 12.5169 125.004 12.5837 126.042 12.5458C126.593 12.5261 126.796 12.7236 126.907 13.2489C127.627 16.6976 128.382 20.1392 129.125 23.5844C129.151 23.699 129.184 23.8129 129.28 24.1856C130.165 20.1779 130.998 16.4149 131.838 12.6076H136.376L131.581 28.9034H127.09C126.251 25.0813 125.412 21.2595 124.572 17.4379L124.43 17.4161C124.06 19.06 123.691 20.7041 123.321 22.3484C122.884 24.3086 122.428 26.2661 122.03 28.2347C121.923 28.7621 121.732 28.9596 121.173 28.9435C119.921 28.9062 118.667 28.9315 117.335 28.9315"
            fill="#1D1D1B"
          />
          <path
            d="M112.562 28.9307C111.075 28.9307 109.695 28.9567 108.318 28.9061C108.172 28.8698 108.036 28.8027 107.919 28.7095C107.802 28.6163 107.707 28.4991 107.641 28.3661C107.5 27.9721 107.407 27.5631 107.364 27.1477C107.078 27.3811 106.83 27.5766 106.589 27.7805C105.784 28.5031 104.808 29.0165 103.751 29.2743C102.693 29.5322 101.587 29.5262 100.533 29.257C99.5404 29.0441 98.6488 28.5102 97.9999 27.7404C97.3511 26.9705 96.9825 26.009 96.9527 25.0088C96.7386 22.7892 97.7428 20.7452 99.7642 20.0358C101.473 19.548 103.212 19.1678 104.97 18.8975C105.495 18.8175 106.008 18.6778 106.5 18.4813C106.727 18.3718 106.919 18.2037 107.056 17.9949C107.193 17.7861 107.27 17.5444 107.279 17.2959C107.287 17.0473 107.227 16.8011 107.104 16.5838C106.981 16.3664 106.801 16.186 106.582 16.0619C106.002 15.7438 105.351 15.5735 104.688 15.5663C104.024 15.5592 103.369 15.7155 102.783 16.0211C102.362 16.2861 102.052 16.6906 101.908 17.1615C101.893 17.2734 101.855 17.3813 101.797 17.4784C101.739 17.5755 101.661 17.6599 101.569 17.7264C101.476 17.7929 101.371 17.8402 101.259 17.8653C101.147 17.8904 101.032 17.8928 100.919 17.8724C99.7977 17.8365 98.6743 17.8618 97.5551 17.8618C97.4899 16.5954 97.8945 15.3488 98.6935 14.3545C99.4925 13.3602 100.631 12.686 101.898 12.4578C104.017 11.9519 106.239 12.0509 108.303 12.7433C110.652 13.5455 111.586 14.7872 111.61 17.2276C111.634 20.04 111.615 22.8581 111.622 25.674C111.622 26.6541 111.489 27.6778 112.478 28.3654C112.562 28.4231 112.524 28.6467 112.56 28.9342M107.331 21.1812C105.923 21.4955 104.679 21.7605 103.443 22.0565C103.047 22.1446 102.666 22.2866 102.309 22.4784C101.969 22.675 101.695 22.9674 101.524 23.3182C101.353 23.669 101.292 24.062 101.349 24.4471C101.338 24.8045 101.439 25.1566 101.638 25.4558C101.836 25.755 102.124 25.9867 102.461 26.1197C104.102 26.794 106.529 25.7527 106.986 24.0716C107.175 23.1169 107.29 22.1495 107.331 21.1777"
            fill="#1D1D1B"
          />
          <path
            d="M170.494 21.9346H159.216C159.077 22.693 159.199 23.4756 159.562 24.1581C159.926 24.8407 160.51 25.3842 161.223 25.7025C161.957 26.0361 162.787 26.1062 163.568 25.9008C164.35 25.6954 165.033 25.2273 165.502 24.5775C165.665 24.3413 165.916 24.1773 166.2 24.1205C167.485 24.0755 168.77 24.0994 170.269 24.0994C170.075 24.699 169.839 25.2846 169.563 25.8522C167.9 28.7181 164.402 30.0582 160.73 29.2749C157.33 28.55 155.02 26.111 154.806 22.715C154.657 20.9979 154.765 19.2687 155.126 17.5824C156.033 13.8426 159.168 11.8823 163.313 12.1615C165.06 12.2205 166.726 12.9026 168 14.081C169.274 15.2594 170.071 16.8538 170.241 18.5674C170.389 19.6291 170.402 20.709 170.489 21.9423M165.819 19.0441C165.717 16.9538 164.507 15.7072 162.588 15.6805C160.631 15.6531 159.404 16.8793 159.254 19.0441H165.819Z"
            fill="#1D1D1B"
          />
          <path
            d="M152.891 28.9329H148.465V27.8712C148.465 25.1792 148.465 22.4873 148.465 19.7954C148.465 19.332 148.465 18.8666 148.427 18.4046C148.303 16.8241 147.68 16.0345 146.388 15.7898C144.808 15.4903 143.281 16.0971 142.776 17.4597C142.436 18.4504 142.259 19.4884 142.252 20.5343C142.181 23.2849 142.229 26.0382 142.229 28.8625H137.938V12.6209H142.088V14.7605C142.333 14.5334 142.445 14.4497 142.532 14.3449C143.497 13.2155 144.837 12.4606 146.315 12.2151C147.792 11.9696 149.31 12.2495 150.597 13.0048C151.289 13.3866 151.864 13.9442 152.263 14.6194C152.661 15.2946 152.868 16.0628 152.863 16.8438C152.949 20.8289 152.891 24.8176 152.891 28.9371"
            fill="#1D1D1B"
          />
          <path
            d="M180 29.199C178.483 29.1844 176.967 29.0905 175.46 28.9178C173.755 28.64 173.06 27.7063 173.045 25.9992C173.016 23.0279 173.036 20.0566 173.035 17.086V15.7944H170.77V12.7275H172.977V8.18896H177.319V12.6888H179.989V15.7339H177.348V17.8432C177.348 19.9785 177.341 22.1146 177.353 24.2499C177.362 25.7412 177.506 25.8719 179.036 25.9064C179.341 25.9134 179.645 25.9064 179.999 25.9064L180 29.199Z"
            fill="#1D1D1B"
          />
          <path
            d="M7.7236 32.9999C7.21957 32.4392 6.68639 31.9046 6.1262 31.3982C6.08939 31.3588 6.0503 31.3214 6.00915 31.2864C5.70865 31.0368 5.48097 30.5447 5.13408 30.5566C4.78719 30.5686 4.55236 31.0403 4.269 31.3096C3.77794 31.7765 3.30043 32.2567 2.82364 32.7369C2.76027 32.8062 2.68204 32.8607 2.59463 32.8964C2.50722 32.9322 2.41283 32.9483 2.3183 32.9436C1.68948 32.9317 1.06066 32.9436 0.431834 32.9352C0.295506 32.9352 0.0863751 33.0259 0.0321294 32.855C-0.00578934 32.7544 -0.0124635 32.6449 0.0129554 32.5405C0.0383743 32.436 0.0947381 32.3414 0.174881 32.2687C0.912908 31.5698 1.63166 30.8526 2.35898 30.1432C3.20193 29.3191 4.05131 28.5021 4.88426 27.6697C5.06841 27.4862 5.17334 27.4763 5.36319 27.6626C6.14833 28.4318 6.95702 29.1729 7.72931 29.9505C7.99126 30.2149 8.13044 30.172 8.37169 29.9358C10.3845 27.946 12.4051 25.9633 14.4336 23.9875C16.9722 21.5033 19.5116 19.023 22.0516 16.5466C23.185 15.4385 24.3242 14.3354 25.4477 13.2175C25.6447 13.0206 25.7531 13.0065 25.9573 13.2097C26.7381 13.9831 27.549 14.7214 28.3227 15.4983C28.5639 15.7409 28.6853 15.7346 28.9244 15.4983C30.4069 14.0288 31.905 12.5776 33.3989 11.1208C33.4632 11.0582 33.5296 10.9992 33.6645 10.874C33.6645 11.9069 33.6645 12.8532 33.6645 13.7996C33.6645 13.9199 33.5681 13.9866 33.4903 14.0612C31.9493 15.5665 30.4047 17.0662 28.873 18.5814C28.6624 18.7923 28.5575 18.722 28.3876 18.5568C27.5911 17.7834 26.7767 17.0261 25.9887 16.2429C25.7696 16.0249 25.6639 16.0425 25.4505 16.252C19.8646 21.7226 14.2747 27.1888 8.68075 32.6504C8.55727 32.7714 8.42593 32.8839 8.29817 33.002L7.7236 32.9999Z"
            fill="#1D1D1B"
          />
          <path
            d="M69.5015 10.5882C69.1982 10.0672 68.9305 9.52373 68.5858 9.02874C65.6051 4.72085 61.4953 2.53913 56.1564 2.71772C55.0886 2.7569 54.0315 2.94267 53.0158 3.26965C52.7839 3.34404 52.534 3.34404 52.3021 3.26965C50.5133 2.72552 48.629 2.55534 46.7696 2.77C44.9102 2.98466 43.1169 3.57944 41.5043 4.51625C39.1557 5.816 37.252 7.77374 36.0348 10.141C35.9991 10.2114 35.9591 10.2775 35.8735 10.4335C35.8592 10.2493 35.8449 10.1523 35.8449 10.0567C35.8449 8.96828 35.8449 7.87707 35.8449 6.79218C35.8369 6.69296 35.8491 6.59316 35.881 6.4987C35.9129 6.40425 35.9637 6.31707 36.0305 6.24236C40.4515 1.42401 45.8611 -0.418107 52.357 1.04997C52.5684 1.09961 52.7889 1.09768 52.9994 1.04434C55.207 0.469734 57.5158 0.379264 59.7628 0.779312C62.0098 1.17936 64.1403 2.06018 66.0041 3.35965C67.2102 4.17475 68.298 5.14788 69.2374 6.2522C69.3088 6.33728 69.3488 6.47368 69.4987 6.4772L69.5015 10.5882Z"
            fill="#1D1D1B"
          />
          <path
            d="M69.5002 25.6646C67.8783 27.6566 66.1417 29.5552 64.2991 31.3513C63.8166 31.8266 63.3276 32.2956 62.8423 32.7688C62.7933 32.8239 62.7329 32.868 62.6652 32.8983C62.5976 32.9287 62.5241 32.9444 62.4497 32.9445C61.5068 32.9368 60.5647 32.9445 59.6118 32.9445C60.1193 32.4278 60.5997 31.9096 61.1107 31.4244C62.9494 29.6786 64.7345 27.8829 66.4047 25.981C67.5842 24.7096 68.5785 23.2827 69.3589 21.7413C69.391 21.671 69.406 21.5838 69.5017 21.5571L69.5002 25.6646Z"
            fill="#1D1D1B"
          />
          <path
            d="M69.5 2.84888C68.2601 1.78394 66.9189 0.839072 65.4951 0.0273438H69.5V2.84888Z"
            fill="#1D1D1B"
          />
          <path
            d="M69.5002 32.8385C69.4109 32.8991 69.3065 32.9345 69.1983 32.9412C68.2554 32.937 67.3133 32.9412 66.3162 32.9412C67.441 31.8429 68.4667 30.7264 69.5002 29.6162V32.8385Z"
            fill="#1D1D1B"
          />
          <path
            d="M52.7275 32.9389C51.8118 32.9389 50.8953 32.9389 49.9796 32.9389C49.8857 32.9459 49.7913 32.934 49.7022 32.9039C49.6131 32.8738 49.5312 32.8261 49.4614 32.7638C46.8083 30.3796 44.1646 27.987 41.7528 25.3616C40.4862 24.0969 39.3966 22.6713 38.513 21.1226C37.7066 19.7101 37.2506 18.1299 37.1821 16.5107C37.1137 14.8916 37.4347 13.2795 38.1191 11.8058C39.9341 7.88814 43.1154 5.73735 47.4529 5.26065C49.1613 5.08929 50.886 5.34564 52.467 6.00594C52.5353 6.03365 52.6087 6.04691 52.6824 6.04485C52.7562 6.04279 52.8287 6.02546 52.8953 5.99398C55.3584 4.97411 58.1242 4.92079 60.626 5.84493C62.4403 6.4375 64.0635 7.49148 65.3316 8.90028C66.5997 10.3091 67.4677 12.0227 67.8478 13.868C68.1987 15.3961 68.1949 16.9825 67.8365 18.509C67.478 20.0354 66.7744 21.4624 65.7779 22.6835C63.6886 25.2914 61.3929 27.7322 58.9123 29.9831C57.9615 30.8901 56.9987 31.7858 56.048 32.6935C55.9701 32.776 55.875 32.8409 55.7694 32.8838C55.6637 32.9268 55.5498 32.9468 55.4355 32.9424C54.5334 32.9276 53.6305 32.9368 52.7283 32.9368M48.3137 7.36433C46.0301 7.36711 43.8362 8.23985 42.191 9.79986C41.1609 10.702 40.3733 11.841 39.8984 13.1156C39.4234 14.3902 39.2758 15.7607 39.4688 17.1051C39.7498 19.0332 40.6064 20.8354 41.9298 22.2827C43.8715 24.5402 45.958 26.6729 48.1766 28.6676C49.6163 29.9852 51.0731 31.2845 52.5206 32.5944C52.6562 32.7174 52.7504 32.832 52.9488 32.6401C55.5897 30.0892 58.3463 27.6481 60.8794 24.9925C62.307 23.6211 63.574 22.0964 64.6566 20.4469C65.3636 19.3217 65.7871 18.0463 65.8917 16.727C65.9964 15.4078 65.7792 14.083 65.2583 12.8633C64.6293 11.2858 63.5245 9.9361 62.0928 8.99622C60.7962 8.05454 59.2564 7.49193 57.6501 7.37292C56.0438 7.2539 54.4359 7.58331 53.0109 8.32335C52.9023 8.38601 52.7782 8.41804 52.6523 8.41593C52.5264 8.41382 52.4036 8.37766 52.2972 8.3114C51.0721 7.66884 49.7014 7.34251 48.3137 7.36433Z"
            fill="#1D1D1B"
          />
          <path
            d="M0.0129395 28.7816C0.0129395 27.767 0.0129395 26.8432 0.0129395 25.92C0.0179914 25.8536 0.0378869 25.789 0.0712025 25.7311C0.104518 25.6731 0.15043 25.6231 0.205654 25.5846C1.75451 24.068 3.30908 22.5578 4.84509 21.032C5.05921 20.8211 5.16557 20.8612 5.354 21.0468C6.14484 21.8258 6.95781 22.5838 7.74937 23.3642C7.94066 23.5527 8.05129 23.5822 8.26185 23.3748C11.0322 20.6453 13.8085 17.9232 16.5907 15.2083C19.1602 12.6987 21.7314 10.1909 24.3043 7.68509C24.6826 7.31667 25.0723 6.95738 25.4327 6.57208C25.6219 6.36959 25.7347 6.39842 25.9167 6.57701C26.7018 7.34549 27.5134 8.08516 28.2814 8.86771C28.5504 9.14051 28.6775 9.07864 28.913 8.84591C30.3955 7.37713 31.893 5.92383 33.3862 4.4656C33.4497 4.40302 33.5225 4.34677 33.6717 4.22021C33.6399 4.85721 33.6444 5.49545 33.6852 6.13194C33.728 6.49289 33.6743 6.85856 33.5294 7.19277C33.3846 7.52697 33.1536 7.81811 32.8594 8.03734C31.5497 9.23261 30.307 10.5038 29.0429 11.7497C28.6147 12.1716 28.624 12.18 28.1786 11.7546C27.4434 11.0515 26.699 10.3597 25.9852 9.6376C25.739 9.388 25.6148 9.42667 25.3835 9.65307C22.5713 12.4191 19.7529 15.1764 16.9283 17.925C14.0504 20.7374 11.1742 23.5522 8.29968 26.3693C8.08555 26.5802 7.97278 26.59 7.75437 26.3693C6.96923 25.586 6.14627 24.8351 5.35757 24.049C5.14701 23.8381 5.04208 23.8698 4.84866 24.061C3.33501 25.5591 1.8147 27.0489 0.287737 28.5306C0.221357 28.5953 0.151409 28.6565 0.0129395 28.7816Z"
            fill="#1D1D1B"
          />
          <path
            d="M0.0144043 22.1168C0.0144043 21.0931 0.0144043 20.1481 0.0144043 19.199C0.0144043 19.0583 0.124323 18.988 0.208547 18.9065C1.74812 17.3997 3.2927 15.8979 4.82585 14.3848C5.02142 14.1915 5.11992 14.2133 5.30621 14.3975C6.11562 15.1969 6.94786 15.9731 7.76368 16.7676C7.92071 16.9216 8.0085 16.9476 8.18195 16.7782C10.5978 14.405 13.0184 12.0362 15.4437 9.67195L24.1052 1.20593C24.4157 0.902891 24.7212 0.595636 25.0331 0.291897C25.1042 0.202465 25.1949 0.129963 25.2984 0.0797739C25.4018 0.0295845 25.5154 0.00299637 25.6308 0.00198321C25.7461 0.000970052 25.8602 0.0255579 25.9646 0.0739215C26.0689 0.122285 26.1609 0.193182 26.2336 0.281351C26.9167 0.939452 27.6069 1.59123 28.2764 2.26128C28.4905 2.47713 28.6283 2.46588 28.8353 2.25425C29.4777 1.59685 30.15 0.963358 30.7967 0.306662C30.8795 0.210588 30.9837 0.134606 31.1012 0.0846129C31.2187 0.03462 31.3462 0.0119599 31.474 0.0183911C32.0607 0.0394842 32.6496 0.0183912 33.2363 0.0303439C33.3791 0.0303439 33.601 -0.0842615 33.6531 0.147058C33.6863 0.242847 33.6912 0.34592 33.6673 0.444345C33.6434 0.542769 33.5918 0.632521 33.5182 0.703211C33.1578 1.03156 32.8173 1.3817 32.4683 1.722C31.2478 2.91727 30.023 4.10551 28.8103 5.30781C28.6247 5.49132 28.5248 5.50187 28.3299 5.31203C27.5391 4.53018 26.7204 3.77857 25.9331 2.99532C25.6997 2.76329 25.5763 2.79775 25.3571 3.01008C22.9713 5.35609 20.5799 7.69648 18.1831 10.0312C14.8699 13.2688 11.5578 16.507 8.2469 19.746C8.04276 19.9464 7.93499 19.9428 7.73513 19.746C6.9343 18.9571 6.10491 18.1992 5.30835 17.4025C5.10279 17.1972 5.00786 17.2415 4.83228 17.4145C3.37573 18.8512 1.91395 20.2831 0.446942 21.7104C0.324889 21.8293 0.198554 21.9446 0.0144043 22.1175"
            fill="#1D1D1B"
          />
          <path
            d="M21.5813 0.0238051C20.3858 1.19869 19.2759 2.2906 18.1631 3.3804C16.2655 5.238 14.3671 7.09488 12.4681 8.95107C11.0534 10.3327 9.63086 11.7072 8.2269 13.0994C8.00492 13.3201 7.89714 13.304 7.68658 13.0994C6.91572 12.3379 6.10632 11.6144 5.34688 10.8417C5.07636 10.5668 4.95003 10.6308 4.71734 10.8635C3.28126 12.2795 1.83447 13.685 0.389823 15.0948C0.287042 15.1946 0.179264 15.2888 0.0136719 15.4421C0.0136719 14.4324 0.0136719 13.4987 0.0136719 12.565C0.0136719 12.4054 0.120736 12.3259 0.215666 12.2331C1.74739 10.7379 3.2784 9.24191 4.8087 7.74525C4.98786 7.56877 5.07565 7.5744 5.25552 7.75369C6.04493 8.53553 6.86362 9.28715 7.65161 10.0704C7.87787 10.2947 8.00063 10.301 8.23189 10.0704C10.3732 7.95688 12.5204 5.8504 14.6736 3.75094C15.8641 2.5852 17.0589 1.42368 18.2424 0.253016C18.3149 0.174721 18.404 0.113144 18.5035 0.0726749C18.6029 0.0322053 18.7102 0.0138385 18.8176 0.0188834C19.6977 0.0315392 20.5849 0.0238051 21.5813 0.0238051Z"
            fill="#1D1D1B"
          />
          <path
            d="M33.6694 17.5405C33.6694 18.541 33.6644 19.4389 33.6694 20.3389C33.6679 20.4186 33.6485 20.4971 33.6128 20.5687C33.577 20.6402 33.5257 20.7032 33.4624 20.753C31.9397 22.2379 30.4206 23.7259 28.9051 25.217C28.7024 25.4181 28.5996 25.3681 28.4254 25.198C27.621 24.4119 26.7995 23.6448 25.9987 22.8581C25.8166 22.6802 25.7231 22.6514 25.5176 22.8532C22.1558 26.1596 18.7871 29.4599 15.4115 32.7542C15.3642 32.8109 15.3052 32.857 15.2383 32.8894C15.1715 32.9218 15.0984 32.9397 15.0239 32.9419C14.0675 32.9363 13.111 32.9419 12.2402 32.9419C13.864 31.3143 15.5064 29.6444 17.1744 27.9998C19.9346 25.281 22.7146 22.586 25.4733 19.8636C25.7017 19.6386 25.8074 19.6667 26.0115 19.8678C26.7923 20.637 27.6032 21.3795 28.3776 22.155C28.6131 22.3912 28.7345 22.3561 28.9529 22.143C30.4168 20.6953 31.8922 19.2603 33.3654 17.8197C33.4367 17.7493 33.5188 17.679 33.6694 17.5426"
            fill="#1D1D1B"
          />
          <path
            d="M0.0122071 8.68754C0.0122071 7.77703 0.0122071 6.86651 0.0122071 5.9567C0.012175 5.89041 0.0268512 5.82491 0.0552082 5.76479C0.0835652 5.70468 0.124918 5.65139 0.176372 5.60866C1.71666 4.10356 3.25505 2.59612 4.79154 1.08633C4.96498 0.915472 5.04563 0.945706 5.20623 1.10461C5.99351 1.88505 6.81362 2.63947 7.60161 3.42202C7.83857 3.65616 7.98204 3.64983 8.21615 3.41499C9.25753 2.36948 10.3225 1.34577 11.3681 0.303072C11.4525 0.208877 11.5571 0.134429 11.6745 0.0851647C11.7918 0.0359001 11.9188 0.0130618 12.0462 0.0183167C12.917 0.0351911 13.7842 0.0246446 14.6528 0.0246446C14.6792 0.0633151 14.7056 0.102689 14.7328 0.142062C14.1618 0.672903 13.5843 1.19671 13.0269 1.73669C11.4143 3.3032 9.80736 4.87627 8.20616 6.4559C7.97776 6.6823 7.85713 6.67386 7.63515 6.4559C6.85644 5.68249 6.04347 4.94424 5.26975 4.16731C5.04064 3.93669 4.93072 3.97958 4.72873 4.18067C3.30121 5.58687 1.86584 6.98674 0.43618 8.39224C0.328697 8.51332 0.230183 8.64185 0.141397 8.77683L0.0122071 8.68754Z"
            fill="#1D1D1B"
          />
          <path
            d="M33.6665 24.2226C33.6665 25.2323 33.6665 26.1435 33.6665 27.0547C33.6617 27.1279 33.6405 27.1991 33.6046 27.2634C33.5688 27.3277 33.519 27.3834 33.4588 27.4266C31.9463 28.9031 30.4317 30.3796 28.9279 31.8618C28.7408 32.046 28.6473 32.0179 28.4768 31.8505C27.6838 31.0736 26.8665 30.3206 26.0792 29.538C25.8316 29.2919 25.6974 29.3334 25.4697 29.5619C24.399 30.6363 23.3091 31.6902 22.2278 32.7533C22.1808 32.8102 22.1219 32.8565 22.0552 32.889C21.9884 32.9215 21.9154 32.9395 21.8409 32.9417C20.8845 32.9361 19.9288 32.9417 19.063 32.9417C20.7703 31.2304 22.509 29.4846 24.2513 27.7388C24.6631 27.3275 25.0992 26.9373 25.494 26.5112C25.6967 26.2918 25.8087 26.2707 26.0321 26.4929C26.7994 27.2579 27.6103 27.9814 28.3675 28.7548C28.6531 29.0438 28.788 28.9657 29.0278 28.7302C30.481 27.2916 31.9478 25.8664 33.411 24.437C33.4666 24.3829 33.5295 24.3358 33.6651 24.2212"
            fill="#1D1D1B"
          />
          <path
            d="M45.8376 32.9382C44.7598 32.9382 43.7805 32.9382 42.802 32.9382C42.7274 32.9308 42.6553 32.9082 42.59 32.8719C42.5248 32.8356 42.4679 32.7863 42.423 32.7273C40.153 30.6332 38.0268 28.3929 36.0584 26.0211C35.9663 25.9079 35.8442 25.8053 35.8442 25.6415C35.8442 24.3442 35.8442 23.047 35.8442 21.6338C36.1883 22.2286 36.4631 22.7271 36.76 23.213C37.7774 24.7569 38.9491 26.1968 40.2574 27.511C41.9997 29.3841 43.874 31.1263 45.8376 32.9396"
            fill="#1D1D1B"
          />
          <path
            d="M39.7698 0.023883C38.4123 0.793227 37.132 1.68784 35.9462 2.69566C35.8128 2.6577 35.847 2.56278 35.847 2.49106C35.847 1.76757 35.852 1.04408 35.8413 0.321294C35.8413 0.105443 35.8877 0.0140396 36.1332 0.0161489C37.3466 0.0281016 38.56 0.0210706 39.7734 0.0210706"
            fill="#1D1D1B"
          />
          <path
            d="M35.8443 29.708C36.8878 30.8379 37.8642 31.863 38.8749 32.8558C38.8249 32.9908 38.7122 32.9366 38.6301 32.9373C37.8249 32.9423 37.0191 32.9303 36.2147 32.9458C35.9399 32.9507 35.8314 32.8867 35.8371 32.5942C35.855 31.6725 35.8436 30.7493 35.8436 29.7115"
            fill="#1D1D1B"
          />
          <path
            d="M2.11282 0.0253898L0.0129395 2.03415C0.0129395 1.42737 0.0129395 0.816377 0.0129395 0.206087C0.0129395 0.0260929 0.121431 0.0232805 0.253476 0.0239836C0.85232 0.0239836 1.45188 0.0239836 2.11425 0.0239836"
            fill="#1D1D1B"
          />
          <path
            d="M33.6659 30.936C33.6659 31.559 33.6659 32.1573 33.6659 32.7557C33.6659 32.8963 33.6024 32.9399 33.4682 32.9399C32.8579 32.9399 32.2484 32.9399 31.6545 32.9399L33.6645 30.9374"
            fill="#1D1D1B"
          />
          <path
            d="M41.9818 16.3811C41.9651 15.4981 42.1353 14.6213 42.4815 13.8066C42.8276 12.9919 43.3423 12.2571 43.9925 11.649C44.6428 11.041 45.4145 10.573 46.2585 10.2749C47.1025 9.97681 48.0002 9.8551 48.8946 9.91754C50.2277 10.0208 51.4786 10.5934 52.4184 11.5304C52.6111 11.7203 52.7146 11.7126 52.9016 11.5304C56.1321 8.37423 61.8358 9.98363 63.1248 14.5657C63.3796 15.4934 63.4022 16.4681 63.1909 17.4064C62.9796 18.3446 62.5406 19.2184 61.9114 19.9529C60.4868 21.7399 58.9365 23.4261 57.272 24.999C55.8402 26.3827 54.3891 27.7474 52.953 29.1276C52.7881 29.2858 52.6911 29.3294 52.4934 29.1515C49.9688 26.87 47.4457 24.5863 45.1524 22.0741C44.3257 21.2351 43.5866 20.3164 42.9461 19.332C42.3731 18.4477 42.0413 17.4328 41.9825 16.3854M48.3785 12.0261C48.1473 12.0479 47.9146 12.0557 47.6869 12.0964C47.4583 12.1359 47.2334 12.194 47.0145 12.2701C46.0848 12.5521 45.2908 13.1573 44.7804 13.9731C44.27 14.7889 44.078 15.7597 44.2402 16.7046C44.432 17.6455 44.8817 18.5168 45.5406 19.2238C47.6784 21.687 49.9798 24.0077 52.4298 26.1704C52.6176 26.3413 52.7246 26.3645 52.9238 26.1753C55.3094 24.0024 57.5662 21.6962 59.6831 19.2681C60.3209 18.5994 60.7824 17.7868 61.0271 16.9014C61.2127 16.0522 61.1089 15.1663 60.7315 14.3811C60.3542 13.5959 59.7245 12.9552 58.94 12.5584C58.165 12.0936 57.2449 11.9223 56.3511 12.0764C55.4574 12.2305 54.651 12.6994 54.0822 13.3958C53.6389 13.8879 53.1836 14.371 52.756 14.8772C52.5719 15.0952 52.4898 15.0438 52.3428 14.8477C51.9702 14.3506 51.5862 13.8633 51.1858 13.3859C50.8569 12.9601 50.4319 12.6156 49.9443 12.3797C49.4568 12.1438 48.9203 12.023 48.3771 12.0268"
            fill="#1D1D1B"
          />
        </g>
      </g>
      <defs>
        <clipPath id="clip0_190_4533">
          <rect width="180" height="33" fill="white" />
        </clipPath>
      </defs>
    </svg>