<svg
      xmlns="http://www.w3.org/2000/svg"
      width="130"
      height="18"
      viewBox="0 0 130 18"
      fill="none"
    >
      <mask
        id="mask0_190_663"
        style="mask-type:luminance"
        maskUnits="userSpaceOnUse"
        x="0"
        y="0"
        width="130"
        height="18"
      >
        <path d="M129.291 0H0.70752V17.4054H129.291V0Z" fill="white" />
      </mask>
      <g mask="url(#mask0_190_663)">
        <path
          d="M0.70752 4.43779C0.758566 4.25687 0.814135 4.07788 0.860012 3.89567C1.02335 3.175 1.36325 2.50624 1.84915 1.94951C2.33504 1.39279 2.95169 0.965559 3.64364 0.706252C6.60238 -0.47621 9.49004 -0.069133 12.3674 1.22317L11.4628 4.16188C10.8024 3.91182 10.1956 3.65594 9.57146 3.45111C8.51501 3.06104 7.37164 2.96894 6.26638 3.1849C5.19183 3.42914 4.60641 4.22521 4.92109 5.14921C5.07065 5.54873 5.36176 5.8794 5.73912 6.07837C6.65343 6.50161 7.6401 6.76782 8.57057 7.16068C9.50363 7.49854 10.3984 7.9341 11.2398 8.4601C11.8943 8.91531 12.4219 9.52987 12.7728 10.2457C13.1237 10.9616 13.2863 11.755 13.2452 12.5512C13.2042 13.3474 12.9608 14.1199 12.5381 14.7958C12.1154 15.4718 11.5274 16.0288 10.8295 16.4143C9.83482 16.9724 8.72433 17.2924 7.58518 17.3492C5.3246 17.5316 3.05637 17.106 1.01573 16.1164L1.92035 13.1731C2.12324 13.2597 2.29318 13.3315 2.46183 13.4045C4.00284 14.1785 5.73884 14.478 7.45014 14.2651C7.79452 14.2131 8.12585 14.096 8.42647 13.9201C8.63243 13.8032 8.80547 13.6361 8.92953 13.4343C9.05358 13.2326 9.12461 13.0028 9.13603 12.7662C9.14744 12.5296 9.09886 12.294 8.9948 12.0813C8.89074 11.8686 8.73458 11.6856 8.54084 11.5494C7.93471 11.1744 7.29056 10.8647 6.61918 10.6254C5.95817 10.354 5.26872 10.1524 4.59866 9.90231C2.62983 9.16505 1.081 8.0317 0.70752 5.7973V4.44037"
          fill="#1D1D1B"
        />
        <path
          d="M35.8523 5.80836V17.0669H32.2339V0.358054C33.4196 0.358054 34.5872 0.352239 35.7548 0.367101C35.8195 0.378656 35.8811 0.40359 35.9356 0.440307C35.9901 0.477024 36.0364 0.524716 36.0714 0.580331C38.1292 3.83565 40.1803 7.09507 42.2247 10.3586C42.4664 10.7922 42.6859 11.2377 42.8825 11.6935V0.382608H46.5048V17.0921C45.3217 17.0921 44.1541 17.098 42.9859 17.0825C42.9204 17.0712 42.858 17.0467 42.8024 17.0103C42.7469 16.974 42.6993 16.9266 42.6628 16.8712C40.893 14.2174 39.0973 11.5792 37.385 8.88858C36.8168 7.89136 36.3051 6.863 35.8523 5.80836Z"
          fill="#1D1D1B"
        />
        <path
          d="M77.6218 17.0742H73.6157V10.0369H67.7745V17.0593H63.7354V0.397619H67.7486V6.82297H73.5679V0.396973H77.6212L77.6218 17.0742Z"
          fill="#1D1D1B"
        />
        <path
          d="M85.3448 14.0022H92.4977V17.0598H81.2896V0.393555H92.415V3.44534H91.8264C89.8317 3.44534 87.837 3.45762 85.8436 3.43565C85.4036 3.43112 85.2737 3.56488 85.2879 3.99651C85.3177 4.93149 85.297 5.87036 85.297 6.85122H91.7243V9.89977H85.3435L85.3448 14.0022Z"
          fill="#1D1D1B"
        />
        <path
          d="M128.458 13.5332L129.291 16.5268C128.408 16.7691 127.555 17.0774 126.675 17.2279C124.877 17.5559 123.026 17.435 121.285 16.8758C119.742 16.391 118.384 15.4479 117.39 14.1718C116.396 12.8958 115.814 11.3473 115.722 9.73253C115.583 8.27247 115.749 6.79938 116.211 5.40718C116.549 4.36482 117.117 3.41131 117.871 2.61625C118.626 1.8212 119.548 1.20469 120.571 0.811729C123.174 -0.258563 126.091 -0.271545 128.703 0.775545C128.897 0.849853 129.077 0.947422 129.284 1.04499L128.385 3.97594C128.192 3.88936 128.024 3.81699 127.858 3.74139C126.58 3.14552 125.145 2.97433 123.763 3.2529C122.848 3.393 122.001 3.82225 121.348 4.47786C120.694 5.13347 120.267 5.98103 120.13 6.89656C119.77 8.38102 119.875 9.94045 120.433 11.3628C120.748 12.2044 121.31 12.9315 122.044 13.4493C122.779 13.967 123.652 14.2514 124.551 14.2653C125.896 14.415 127.255 14.1596 128.455 13.5319"
          fill="#1D1D1B"
        />
        <path
          d="M22.4475 6.50442C22.8998 5.68509 23.3062 4.96205 23.7088 4.23319C24.3595 3.06042 25.0011 1.88119 25.6692 0.718755C25.7209 0.629801 25.791 0.552897 25.8748 0.493175C25.9586 0.433452 26.0542 0.392284 26.1551 0.372417C27.5011 0.343986 28.8483 0.356263 30.2951 0.356263C30.1781 0.568847 30.1012 0.726509 30.0075 0.877063C28.2164 3.84937 26.4181 6.81263 24.6444 9.79399C24.4756 10.0896 24.3838 10.4229 24.3776 10.7632C24.353 12.6623 24.3653 14.562 24.3653 16.461V17.06H20.3152V16.4733C20.3152 14.5393 20.3242 12.6048 20.3049 10.6708C20.2986 10.38 20.22 10.0953 20.0761 9.84245C18.3358 6.86368 16.5847 3.89072 14.8229 0.923586C14.7286 0.763986 14.6478 0.600509 14.5186 0.356263C15.7249 0.356263 16.8589 0.417647 17.9819 0.335586C18.3244 0.278248 18.6761 0.344158 18.9746 0.521607C19.2731 0.699057 19.499 0.976558 19.6122 1.30482C20.478 3.03263 21.455 4.70359 22.4475 6.50442Z"
          fill="#1D1D1B"
        />
        <path
          d="M61.7621 3.48751H57.2267V17.0567H53.1469V3.50237H48.6826V0.39502H61.7627L61.7621 3.48751Z"
          fill="#1D1D1B"
        />
        <path
          d="M98.2078 3.48882H93.7441V0.375H106.82V3.48429H102.289V17.0535H98.209L98.2078 3.48882Z"
          fill="#1D1D1B"
        />
        <path
          d="M112.776 0.381836H108.795V17.0662H112.776V0.381836Z"
          fill="#1D1D1B"
        />
      </g>
    </svg>