<svg
      xmlns="http://www.w3.org/2000/svg"
      width="135"
      height="34"
      viewBox="0 0 135 34"
      fill="none"
    >
      <g clipPath="url(#clip0_190_4264)">
        <mask
          id="mask0_190_4264"
          style="mask-type:luminance"
          maskUnits="userSpaceOnUse"
          x="0"
          y="0"
          width="135"
          height="34"
        >
          <path d="M134.881 0H0V33.927H134.881V0Z" fill="white" />
        </mask>
        <g mask="url(#mask0_190_4264)">
          <path
            d="M6.6556 16.2106C6.74864 16.0252 6.84234 15.8404 6.93474 15.6549C7.72369 14.0803 8.47517 12.4888 9.31194 10.938C9.98135 9.69999 10.7768 8.53045 11.4707 7.3047C11.6093 7.01269 11.842 6.77576 12.1315 6.63196C12.4209 6.48817 12.7503 6.44587 13.0667 6.51186C13.8135 6.59899 14.5548 6.72843 15.2869 6.89956C15.6893 7.0236 16.0605 7.23223 16.3757 7.51146C16.4574 7.60235 16.5188 7.70953 16.556 7.82592C16.5932 7.94232 16.6053 8.06528 16.5915 8.1867C16.4758 9.11005 16.2536 10.0218 16.1696 10.9464C16.094 11.7806 16.1605 12.6264 16.1424 13.4664C16.0981 14.4071 16.1048 15.3495 16.1625 16.2895C16.4119 15.602 16.6639 14.9151 16.9107 14.2256C16.9433 14.085 16.983 13.9461 17.0296 13.8095C18.4404 10.8682 19.8533 7.9278 21.2684 4.98823C21.932 3.60223 22.666 2.23885 23.1894 0.800511C23.2149 0.666373 23.2674 0.538803 23.3436 0.425505C23.4198 0.312207 23.5182 0.21553 23.6328 0.141312C23.7475 0.0670935 23.8759 0.0168735 24.0105 -0.00631628C24.1451 -0.029506 24.2829 -0.0251844 24.4158 0.00638772C25.723 0.0819877 27.0178 0.128511 28.1583 0.928449C28.4374 1.15427 28.6253 1.47347 28.6873 1.82707C28.7493 2.18067 28.6812 2.54475 28.4956 2.85205C27.6496 4.15689 26.8748 5.50653 26.1746 6.89503C25.0762 9.13331 24.0462 11.4078 23.0576 13.6977C21.5904 17.0939 20.1581 20.5054 18.7606 23.9322C17.9155 25.9999 17.1646 28.1044 16.3537 30.1856C16.1903 30.5758 15.9943 30.9515 15.7677 31.3087C15.5689 31.5383 15.2988 31.6947 15.0007 31.7527C14.7025 31.8107 14.3936 31.7669 14.1232 31.6285C13.2393 31.244 12.3547 30.857 11.4514 30.5229C10.1358 30.037 9.82886 29.6687 9.81464 28.3021C9.79461 26.3753 9.79461 24.4484 9.78298 22.5216C9.78298 22.4182 9.75908 22.3155 9.72612 22.0486C9.31905 22.9016 8.96366 23.6059 8.64446 24.3263C8.18375 25.3653 7.76698 26.4276 7.30175 27.4615C6.74477 28.6976 6.15871 29.9207 5.57523 31.1445C5.43708 31.3965 5.221 31.5969 4.95935 31.7158C4.69771 31.8346 4.40461 31.8654 4.12397 31.8036C3.74118 31.6989 3.36454 31.5729 2.99578 31.4263C2.24064 31.1213 1.49046 30.8034 0.74523 30.4725C0.498622 30.3703 0.292274 30.1902 0.157735 29.9596C0.0231967 29.729 -0.03213 29.4607 0.000214292 29.1957C0.0447989 27.8007 0.0163681 26.4018 0.117814 25.0119C0.234768 23.4043 0.45963 21.805 0.634737 20.2026C0.733383 19.3092 0.831168 18.416 0.928091 17.523C1.07068 16.2307 1.21348 14.9384 1.35649 13.646C1.49735 12.3886 1.63563 11.1312 1.78489 9.8751C1.86501 9.20374 1.98455 8.53691 2.05304 7.86491C2.13317 7.0863 2.13317 6.29734 2.24689 5.5239C2.43298 4.23805 2.66624 2.95802 2.92018 1.6838C2.95987 1.58376 3.02424 1.4954 3.10728 1.42693C3.19032 1.35846 3.28934 1.31213 3.39511 1.29223C4.82984 1.36489 6.22932 1.7626 7.48784 2.45531C7.66313 2.56103 7.80077 2.71914 7.88135 2.90731C7.96193 3.09548 7.98137 3.30421 7.93692 3.50402C7.76957 4.88097 7.64744 6.26374 7.47169 7.6394C7.34892 8.60023 7.14861 9.55073 7.01938 10.5103C6.89532 11.4149 6.80551 12.3305 6.72344 13.2428C6.64332 14.1378 6.59034 15.0353 6.5296 15.9321C6.53012 16.0151 6.53747 16.0979 6.55157 16.1796L6.65624 16.2113"
            fill="#1D1D1B"
          />
          <path
            d="M88.5652 16.5421C89.1868 16.8064 89.6552 17.0003 90.1198 17.2025C91.1758 17.6002 92.0361 18.3924 92.5192 19.4121C93.0024 20.4318 93.0706 21.5993 92.7096 22.6683C91.9459 25.4578 89.9421 27.1022 87.7937 28.6381C84.8409 30.6314 81.6792 32.2963 78.365 33.6032C77.8459 33.8878 77.2483 33.9957 76.6624 33.9107C76.0766 33.8257 75.5343 33.5525 75.1174 33.1321C74.8386 32.8954 74.5299 32.6961 74.1992 32.5396C74.1127 32.5083 74.0351 32.4563 73.9732 32.3882C73.9113 32.3201 73.8669 32.2379 73.844 32.1488C73.8211 32.0596 73.8203 31.9662 73.8416 31.8767C73.863 31.7872 73.9059 31.7042 73.9666 31.635C74.3909 30.8119 75.0857 30.16 75.9342 29.7889C76.0517 29.7363 76.1645 29.6738 76.2715 29.6022C76.822 29.2669 76.8233 29.0077 76.4382 28.5037C75.9734 27.8731 75.542 27.2185 75.1459 26.5427C75.1113 26.4594 75.0935 26.3702 75.0935 26.28C75.0935 26.1899 75.1113 26.1006 75.1459 26.0173C75.4315 25.2801 75.7752 24.5648 76.0505 23.8204C76.5163 22.5527 77.0197 21.2927 77.3712 19.9913C78.01 18.0244 78.7742 16.1006 79.6592 14.2315C80.4346 12.3415 81.3858 10.5245 82.2439 8.66941C82.6361 7.82489 82.9546 6.94418 83.3817 6.11904C83.7694 5.37532 84.2631 4.6891 84.6966 3.96864C85.1302 3.24818 85.2679 3.19713 86.0536 3.47369C86.244 3.53426 86.4476 3.53963 86.6409 3.4892C87.2755 3.32055 87.8919 3.06209 88.538 2.93286C89.3439 2.71844 90.1759 2.61859 91.0096 2.63627C91.8647 2.7568 92.6965 3.00647 93.4766 3.37677C94.5099 3.76387 95.4307 4.40181 96.1562 5.23317C96.6352 5.87744 96.875 6.66845 96.8342 7.47027C96.7934 8.2721 96.4746 9.03469 95.9326 9.62701C95.2316 10.4722 94.4943 11.2921 93.7215 12.0714C93.0637 12.7337 92.3387 13.3314 91.6299 13.942C90.6658 14.7723 89.6914 15.5878 88.5632 16.5402M80.642 27.2929L80.7713 27.4221C80.9121 27.362 81.0562 27.3084 81.1939 27.2405C83.005 26.307 84.6853 25.1388 86.1912 23.7661C87.1853 22.973 87.93 21.9104 88.3364 20.7053C88.5303 20.043 88.2589 19.6883 87.6043 19.8653C86.0048 20.1911 84.48 20.8118 83.1078 21.6959C82.7627 21.9308 82.4869 22.2539 82.3091 22.6315C81.714 24.17 81.19 25.7363 80.6401 27.2929M86.7139 11.4621C88.678 10.0883 90.3976 8.39474 91.8011 6.45181C90.6776 6.91151 89.5845 7.44221 88.5283 8.0407C88.1215 8.31685 87.7996 8.70078 87.5985 9.1495C87.2464 9.87449 87.017 10.657 86.7146 11.4627"
            fill="#1D1D1B"
          />
          <path
            d="M29.3046 28.7742C29.576 26.985 29.8286 25.3192 30.08 23.6535C30.0975 23.5632 30.1087 23.4719 30.1136 23.3801C30.1175 23.0344 30.3145 22.6222 29.8073 22.4432C29.5766 22.3918 29.3358 22.4117 29.1166 22.5C28.8974 22.5884 28.7102 22.7412 28.5796 22.9382C28.2565 23.7717 27.991 24.6285 27.7157 25.4808C27.2634 26.8726 26.8357 28.2715 26.3775 29.6607C26.1191 30.4484 25.6448 30.6145 24.8177 30.5007C24.0845 30.3686 23.3922 30.0673 22.7959 29.6207C22.3287 29.3067 22.0451 28.7012 21.5643 28.4305C21.3753 28.322 21.223 28.1594 21.1271 27.9636C21.0312 27.7679 20.996 27.5479 21.0261 27.332C21.0566 27.1186 21.1202 26.9113 21.2148 26.7175C21.6025 25.4252 21.9456 24.1135 22.3843 22.8367C23.0279 20.9646 23.71 19.1058 24.4307 17.2604C25.0678 15.6218 25.6984 13.9734 26.4712 12.3975C26.9657 11.3156 27.3324 10.1797 27.5639 9.0129C27.697 8.43589 28.0504 8.4081 28.5409 8.44881C29.4248 8.52312 30.3262 8.4417 31.139 8.92503C31.6685 9.2465 32.0721 9.73945 32.2828 10.322C32.4934 10.9045 32.4984 11.5416 32.2969 12.1274C31.8214 13.5276 31.4266 14.9549 30.9665 16.3603C30.7352 17.0666 30.436 17.7495 30.1685 18.4409C30.8832 18.8803 31.3038 18.7608 31.5629 18.0377C32.1865 16.2931 32.7712 14.5388 33.4368 12.8123C33.8161 11.8243 34.3414 10.8926 34.7562 9.91752C35.151 8.99546 35.478 8.04367 35.8682 7.11967C35.9238 6.99044 36.2204 6.82309 36.3205 6.86703C37.1231 7.2069 38.1059 7.07638 38.7727 7.72641C39.363 8.26921 39.8889 8.878 40.3403 9.54081C40.504 9.94314 40.5098 10.3925 40.3564 10.7989C40.0056 11.9316 39.5565 13.0339 39.1604 14.1531C38.8011 15.1684 38.4522 16.1871 38.1136 17.2094C37.6458 18.6147 37.1586 20.015 36.7405 21.4359C36.3894 22.5715 36.1078 23.7274 35.8973 24.8973C35.671 26.3111 35.1113 27.6507 34.2645 28.8052C33.9751 29.1245 33.6042 29.3588 33.1916 29.4829C32.7789 29.607 32.3403 29.6162 31.9228 29.5095C31.0602 29.244 30.1847 29.0185 29.3046 28.7723"
            fill="#1D1D1B"
          />
          <path
            d="M128.866 21.9026C129.347 22.8072 129.845 23.6259 130.228 24.493C130.827 25.8499 131.343 27.2463 131.903 28.6213C132.207 29.365 131.376 29.9349 130.62 29.8858C130.206 29.877 129.799 29.7777 129.427 29.595C129.055 29.4123 128.728 29.1505 128.468 28.8281C127.948 28.3123 127.469 27.7576 127.034 27.1687C126.549 26.2061 126.113 25.2192 125.729 24.2119C125.586 23.883 125.428 23.5613 125.276 23.2356H125.124C124.995 23.5226 124.887 23.8187 124.801 24.1215C124.478 25.6464 124.187 27.1778 123.868 28.7027C123.815 29.2274 123.673 29.7392 123.449 30.2166C122.965 30.992 121.533 30.8983 120.827 30.1436C120.341 29.6267 119.845 29.1156 119.33 28.6271C119.212 28.5286 119.126 28.3965 119.084 28.2483C119.042 28.1001 119.046 27.9427 119.095 27.7968C119.376 26.5833 119.601 25.3576 119.874 24.1422C120.165 22.8434 120.47 21.5472 120.802 20.2581C121.11 19.0621 121.439 17.8674 121.801 16.6894C122.208 15.3667 122.618 14.0402 123.109 12.7479C123.464 11.7718 123.908 10.8301 124.434 9.93453C124.887 9.09478 125.553 8.38957 126.366 7.8903C127.179 7.39104 128.109 7.11545 129.063 7.09145C131.324 7.04428 133.733 8.03225 134.59 10.6757C134.988 11.8708 134.978 13.1645 134.56 14.3529C134.036 15.8352 133.448 17.3 132.798 18.7313C132.486 19.4511 132.017 20.0914 131.424 20.6047C130.831 21.118 130.13 21.4909 129.373 21.6958C129.218 21.7404 129.072 21.816 128.868 21.8994M130.298 10.7855L130.021 10.686C127.939 12.5224 127.46 15.1309 126.779 17.6645C127.153 17.5856 127.504 17.4233 127.806 17.1897C128.108 16.956 128.354 16.6571 128.524 16.3153C129.063 15.096 129.54 13.8463 129.973 12.585C130.127 11.995 130.235 11.3938 130.296 10.7868"
            fill="#1D1D1B"
          />
          <path
            d="M118.661 14.6915C118.539 16.7081 118.467 18.7293 118.279 20.7401C118.166 21.9678 117.898 23.1832 117.665 24.398C117.459 25.4739 117.244 26.5497 116.961 27.6062C116.823 28.0379 116.599 28.437 116.302 28.7789C116.204 28.8482 116.092 28.8955 115.974 28.9178C115.856 28.9401 115.735 28.9368 115.618 28.9082C114.357 28.6497 113.646 27.7231 113.088 26.6705C112.983 26.3763 112.946 26.0622 112.98 25.7517C112.993 25.6607 112.987 25.568 112.964 25.4791C112.94 25.3903 112.899 25.3072 112.842 25.2347C112.785 25.1623 112.715 25.1021 112.634 25.0576C112.554 25.0132 112.465 24.9856 112.374 24.9763C111.709 24.8529 111.05 24.7043 110.387 24.5763C109.805 24.4639 109.689 24.9705 109.494 25.3097C109.171 25.8719 108.891 26.4638 108.619 27.0543C108.252 27.8523 107.908 28.6594 107.56 29.4671C107.478 29.6747 107.352 29.8622 107.191 30.0168C107.03 30.1714 106.837 30.2895 106.626 30.3631C106.415 30.4367 106.191 30.464 105.969 30.4431C105.746 30.4223 105.531 30.3539 105.338 30.2425C104.691 29.8341 104.304 29.1944 103.672 28.8015C103.588 28.7486 103.621 28.4649 103.644 28.2937C103.685 27.9939 103.798 27.7005 103.815 27.4013C103.822 26.4945 104.126 25.615 104.679 24.8962C104.803 24.7374 104.903 24.5616 104.978 24.3741C105.538 23.0275 106.057 21.6603 106.658 20.3363C106.958 19.6727 107.451 19.0976 107.772 18.4405C108.259 17.446 108.652 16.4057 109.125 15.4036C109.388 14.8466 109.746 14.3355 110.037 13.7882C110.856 12.2546 111.668 10.717 112.475 9.17527C112.594 8.88576 112.8 8.64081 113.066 8.47493C113.331 8.30904 113.642 8.23059 113.954 8.25063C115.031 8.29392 116.123 8.26484 117.086 8.85478C118.06 9.45183 118.736 10.1943 118.613 11.4866C118.512 12.5437 118.593 13.6189 118.593 14.6844L118.657 14.6896M114.01 15.8526H113.922L111.596 20.5663C112.045 20.5663 112.388 20.5592 112.731 20.5663C113.127 20.5767 113.341 20.4287 113.368 19.999C113.389 19.6559 113.497 19.3192 113.551 18.9761C113.71 17.9358 113.858 16.8936 114.011 15.8526"
            fill="#1D1D1B"
          />
          <path
            d="M99.0271 24.8199C99.7243 24.5853 100.347 24.4012 100.948 24.1634C101.222 24.0548 101.331 24.1492 101.55 24.3088C102.178 24.7682 102.238 25.5016 102.487 26.118C102.591 26.5315 102.548 26.9682 102.367 27.3538C102.185 27.7395 101.875 28.0503 101.49 28.2335C100.509 28.6212 99.4794 28.8796 98.4662 29.1801C97.9674 29.3457 97.4565 29.4723 96.9381 29.5588C96.5676 29.6033 96.1919 29.5687 95.8357 29.4573C94.3496 28.9888 94.0078 27.5731 93.3984 26.3907C93.2952 26.1962 93.2621 25.9721 93.3048 25.7561C93.7306 24.2512 94.1719 22.7509 94.6384 21.2583C95.145 19.6429 95.6361 18.0139 96.2228 16.4237C96.8405 14.7489 97.5448 13.1044 98.2511 11.4639C98.4837 10.963 98.5515 10.4013 98.4449 9.85946C98.4429 9.76722 98.4625 9.6758 98.5023 9.59253C98.542 9.50927 98.6007 9.43648 98.6736 9.38001C99.7928 8.64857 101.117 8.71706 102.363 8.48961C102.98 8.39545 103.603 8.346 104.227 8.34164C104.824 8.31043 105.42 8.41955 105.967 8.66023C106.515 8.90092 106.998 9.26649 107.379 9.72764C107.643 10.1294 107.754 10.6134 107.69 11.0904C107.671 11.2978 107.169 11.5427 106.85 11.6254C105.83 11.8903 104.789 12.0777 103.762 12.3161C103.487 12.3441 103.228 12.4555 103.018 12.6355C102.808 12.8155 102.659 13.0554 102.59 13.3228C102.386 13.9683 102.147 14.6021 101.873 15.2212C101.672 15.7485 101.758 15.8674 102.315 15.9146C102.948 15.9187 103.572 16.0587 104.146 16.325C104.72 16.5913 105.231 16.9778 105.642 17.4582C105.773 17.6119 105.856 17.8008 105.879 18.0011C105.903 18.2015 105.867 18.4044 105.776 18.5845C105.612 18.9575 105.314 19.2552 104.941 19.4187C103.989 19.658 103.025 19.8438 102.052 19.975C101.642 20.0396 101.212 20.0008 100.809 20.0842C100.697 20.1075 100.59 20.1544 100.497 20.2219C100.404 20.2894 100.327 20.376 100.27 20.4758C99.8303 21.6731 99.4296 22.8853 99.0387 24.0988C99.006 24.3365 99.0034 24.5775 99.031 24.816"
            fill="#1D1D1B"
          />
          <path
            d="M65.9518 16.5058C66.8112 16.6415 67.6079 16.7494 68.3968 16.8967C68.7235 16.9549 69.0299 17.0959 69.2865 17.3063C69.5431 17.5168 69.7413 17.7895 69.8623 18.0986C70.2015 18.8455 69.8209 19.345 69.0869 19.513C68.2657 19.7017 67.4295 19.8244 66.5992 19.9705C66.1501 20.0493 65.7011 20.1352 65.2481 20.1831C65.0838 20.1742 64.9217 20.224 64.7908 20.3237C64.6599 20.4234 64.5687 20.5664 64.5335 20.7271C64.2485 21.8527 63.9429 22.9731 63.6392 24.1188C64.6336 24.0464 65.5512 23.9773 66.4706 23.9165C66.5721 23.9094 66.7362 23.9165 66.7724 23.9811C67.2686 24.8056 68.2275 25.2883 68.4589 26.3151C68.5771 26.8384 68.4899 27.21 67.9852 27.3676C66.3608 27.8762 64.7364 28.3963 63.0842 28.7969C62.5412 28.8194 61.9988 28.7392 61.4856 28.5604C61.2098 28.475 60.9259 28.4187 60.6385 28.3924C59.0321 28.4609 58.154 27.0394 57.9821 25.9926C57.9772 25.426 58.073 24.8631 58.2651 24.3301C58.7157 21.9344 59.359 19.5791 60.1887 17.287C61.0436 15.1275 61.9069 12.9707 62.7223 10.7957C62.9154 10.1956 63.2031 9.63026 63.5746 9.1209C63.6075 9.0789 63.6218 8.99555 63.6579 8.98585C64.423 8.7849 65.1602 8.40884 65.9912 8.60721C66.15 8.65971 66.3171 8.6827 66.4842 8.67505C67.1892 8.57167 67.889 8.43468 68.5933 8.32548C69.0381 8.24325 69.4975 8.29917 69.9096 8.48572C70.3218 8.67227 70.6669 8.98052 70.8987 9.36902C71.1385 9.7173 71.4027 10.0488 71.6244 10.408C71.994 11.007 71.8182 11.491 71.1456 11.6751C70.0717 11.9711 68.9887 12.2321 67.9148 12.5235C67.7589 12.5608 67.6228 12.6554 67.5336 12.7885C67.2247 13.4295 66.9481 14.0859 66.6625 14.7379C66.5004 15.1082 66.3395 15.4797 66.1883 15.8538C66.101 16.0671 66.0313 16.2867 65.9511 16.509"
            fill="#1D1D1B"
          />
          <path
            d="M56.9341 8.90691C58.4913 8.8507 59.6305 9.15181 60.5254 10.0435C60.8573 10.4036 61.1202 10.8218 61.3008 11.277C61.4946 11.719 61.0029 12.2185 60.3762 12.3386C59.8592 12.4381 59.352 12.6268 58.8299 12.694C58.5117 12.7369 58.2154 12.8799 57.9839 13.1024C57.7524 13.3248 57.5977 13.6152 57.5421 13.9314C57.2895 14.7068 56.9877 15.4725 56.7519 16.2576C56.0902 18.4603 55.4718 20.676 54.7973 22.8742C54.3353 24.3784 53.8248 25.8685 53.304 27.3533C53.0087 28.1933 52.6507 29.0159 52.3167 29.8449C52.2812 29.9298 52.2321 30.0084 52.1713 30.0775C51.8285 30.3828 51.3964 30.5693 50.9391 30.6094C50.4818 30.6494 50.0238 30.5409 49.6332 30.2998C49.0316 29.9683 48.5291 29.4825 48.1774 28.8925C48.0337 28.6568 47.9595 28.3853 47.9635 28.1093C48.2317 26.6316 48.5082 25.1525 48.8623 23.6935C49.2763 21.9877 49.7362 20.2932 50.2419 18.6102C50.7924 16.7945 51.4263 15.0034 52.0214 13.2006C52.1894 12.6921 52.1041 12.5693 51.562 12.4724C51.4168 12.4637 51.2773 12.4127 51.1607 12.3257C50.6638 11.7823 50.0694 11.2809 50.1023 10.4448C50.1075 10.3155 50.2012 10.1036 50.302 10.07C50.7338 9.9212 51.1764 9.80584 51.6259 9.72495C52.3968 9.59184 53.1767 9.50331 53.9521 9.38701C54.385 9.32239 54.8147 9.23258 55.2444 9.16408C55.9093 9.05876 56.5755 8.96119 56.9315 8.90562"
            fill="#1D1D1B"
          />
          <path
            d="M41.9283 28.9903C41.0278 28.9373 40.1708 28.5853 39.4929 27.9901C39.292 27.8324 39.0736 27.6954 38.8623 27.5507C38.6517 27.4436 38.4914 27.2584 38.4155 27.0347C38.3397 26.8109 38.3544 26.5664 38.4565 26.3534C38.6831 25.4292 38.8469 24.4908 38.9469 23.5445C39.2103 21.9191 39.6397 20.3248 40.2283 18.7869C40.645 17.6962 40.9132 16.5454 41.3687 15.4728C42.148 13.6371 43.0248 11.8433 43.8545 10.0289C44.0205 9.66452 44.1362 9.27489 44.3242 8.92338C44.4063 8.77089 44.6693 8.55378 44.7539 8.58932C45.7697 9.02353 46.9857 9.04809 47.7463 10.0109C48.0183 10.3559 48.3149 10.6841 48.5611 11.0447C48.6884 11.2255 48.7651 11.437 48.7834 11.6573C48.8017 11.8777 48.7609 12.0989 48.6651 12.2982C47.975 13.9718 47.314 15.6582 46.6543 17.3428C45.8554 19.443 45.1903 21.5916 44.6628 23.7759C44.2932 25.242 43.7524 26.6674 43.2458 28.0954C43.1544 28.368 42.9757 28.6028 42.7375 28.7638C42.4992 28.9247 42.2147 29.0027 41.9277 28.9858"
            fill="#1D1D1B"
          />
        </g>
      </g>
      <defs>
        <clipPath id="clip0_190_4264">
          <rect width="134.881" height="33.927" fill="white" />
        </clipPath>
      </defs>
    </svg>